<svg xmlns="http://www.w3.org/2000/svg" version="1.1" xmlns:xlink="http://www.w3.org/1999/xlink" xmlns:svgjs="http://svgjs.dev/svgjs" width="2000" height="2000" viewBox="0 0 2000 2000"><g transform="matrix(1,0,0,1,0,0)"><svg viewBox="0 0 280 280" data-background-color="#89939e" preserveAspectRatio="xMidYMid meet" height="2000" width="2000" xmlns="http://www.w3.org/2000/svg" xmlns:xlink="http://www.w3.org/1999/xlink"><defs></defs><g id="tight-bounds" transform="matrix(1,0,0,1,0,0)"><svg viewBox="0 0 280 280" height="280" width="280"><g><svg viewBox="0 0 280 280" height="280" width="280"><g><svg viewBox="0 0 280 280" height="280" width="280"><g><svg viewBox="0 0 280 280" height="280" width="280"><g><svg viewBox="0 0 280 280" height="280" width="280"><g transform="matrix(1,0,0,1,57.5184955688958,57.50849487376735)"><svg viewBox="0 0 164.9630088622084 164.9830102524653" height="164.9830102524653" width="164.9630088622084"><g><circle r="82" cx="82.49579113843055" cy="82.49579113843055" fill="#000000" data-fill-palette-color="accent"></circle><svg xmlns="http://www.w3.org/2000/svg" xmlns:xlink="http://www.w3.org/1999/xlink" version="1.1" x="24.74445132933126" y="24.74445132933126" viewBox="282.5642395019531 351.6910095214844 54.2432861328125 89.99948120117188" enable-background="new 256 346 100 100" xml:space="preserve" height="115.49410759380278" width="115.47410620354589" class="icon-o-0" data-fill-palette-color="quaternary" id="o-0"><g fill="#89939e" data-fill-palette-color="quaternary"><path d="M290.577 366.733c-4.146 0-7.521-3.373-7.521-7.521s3.374-7.521 7.521-7.521c4.147 0 7.521 3.373 7.521 7.521S294.723 366.733 290.577 366.733zM290.577 352.679c-3.603 0-6.534 2.931-6.534 6.534s2.931 6.534 6.534 6.534 6.534-2.931 6.534-6.534S294.18 352.679 290.577 352.679z" fill="#89939e" data-fill-palette-color="quaternary"></path></g><g fill="#89939e" data-fill-palette-color="quaternary"><path d="M288.481 358.35c-0.905 0-1.712-0.541-2.055-1.38-0.051-0.126 0.009-0.27 0.135-0.322s0.269 0.009 0.322 0.135c0.266 0.652 0.895 1.073 1.599 1.073 0.952 0 1.726-0.774 1.726-1.726s-0.774-1.726-1.726-1.726c-0.136 0-0.247-0.11-0.247-0.247s0.11-0.247 0.247-0.247c1.223 0 2.219 0.995 2.219 2.219C290.701 357.353 289.704 358.35 288.481 358.35z" fill="#89939e" data-fill-palette-color="quaternary"></path></g><g fill="#89939e" data-fill-palette-color="quaternary"><path d="M286.911 361.062c-0.539 0-1.02-0.323-1.225-0.823-0.051-0.125 0.009-0.27 0.135-0.322 0.128-0.053 0.269 0.009 0.322 0.135 0.128 0.314 0.431 0.516 0.768 0.516 0.458 0 0.83-0.372 0.83-0.829 0-0.457-0.373-0.829-0.83-0.829-0.136 0-0.247-0.11-0.247-0.247s0.11-0.247 0.247-0.247c0.73 0 1.324 0.594 1.324 1.323C288.235 360.469 287.641 361.062 286.911 361.062z" fill="#89939e" data-fill-palette-color="quaternary"></path></g><g fill="#89939e" data-fill-palette-color="quaternary"><path d="M308.065 369.286c-0.794 0-1.576-0.144-2.324-0.427-3.391-1.282-5.108-5.085-3.826-8.477 0.963-2.544 3.434-4.252 6.152-4.252 0.794 0 1.577 0.144 2.325 0.427 3.391 1.282 5.108 5.085 3.826 8.476C313.256 367.577 310.783 369.286 308.065 369.286zM308.067 357.117c-2.31 0-4.412 1.453-5.229 3.615-1.089 2.883 0.369 6.116 3.252 7.206 0.637 0.241 1.302 0.363 1.976 0.363 2.311 0 4.413-1.453 5.23-3.615 1.089-2.883-0.369-6.115-3.252-7.205C309.407 357.239 308.742 357.117 308.067 357.117z" fill="#89939e" data-fill-palette-color="quaternary"></path></g><g fill="#89939e" data-fill-palette-color="quaternary"><path d="M306.253 362.052c-0.002 0-0.003 0-0.005 0-0.797-0.001-1.505-0.48-1.806-1.219-0.051-0.126 0.01-0.27 0.136-0.322 0.124-0.053 0.269 0.009 0.321 0.135 0.225 0.553 0.756 0.91 1.351 0.911 0.001 0 0.002 0 0.003 0 0.804 0 1.459-0.654 1.461-1.458 0.002-0.806-0.652-1.463-1.459-1.464-0.136 0-0.246-0.11-0.246-0.247 0-0.137 0.11-0.247 0.247-0.247 0 0 0 0 0.001 0 1.077 0.002 1.952 0.881 1.95 1.958C308.205 361.176 307.328 362.052 306.253 362.052z" fill="#89939e" data-fill-palette-color="quaternary"></path></g><g fill="#89939e" data-fill-palette-color="quaternary"><path d="M304.888 364.397c-0.001 0-0.002 0-0.002 0-0.48-0.001-0.909-0.289-1.09-0.735-0.051-0.125 0.009-0.269 0.135-0.322 0.126-0.053 0.27 0.009 0.322 0.135 0.106 0.259 0.354 0.427 0.635 0.428h0.001c0.182 0 0.353-0.071 0.483-0.2 0.129-0.129 0.201-0.301 0.201-0.484 0.001-0.378-0.307-0.685-0.684-0.686-0.136 0-0.246-0.111-0.246-0.247 0-0.136 0.11-0.247 0.247-0.247 0 0 0 0 0.001 0 0.649 0.002 1.176 0.532 1.175 1.181-0.001 0.315-0.123 0.611-0.347 0.832C305.497 364.275 305.202 364.397 304.888 364.397z" fill="#89939e" data-fill-palette-color="quaternary"></path></g><g fill="#89939e" data-fill-palette-color="quaternary"><path d="M322.383 376.102c-1.411 0-2.772-0.515-3.832-1.449-1.161-1.024-1.853-2.439-1.95-3.984-0.097-1.545 0.414-3.035 1.438-4.195 1.1-1.247 2.685-1.961 4.347-1.961 1.412 0 2.772 0.515 3.832 1.449 2.396 2.115 2.625 5.783 0.512 8.178C325.629 375.387 324.046 376.102 322.383 376.102zM322.387 365.501c-1.38 0-2.695 0.593-3.607 1.627-0.849 0.963-1.273 2.199-1.193 3.481 0.08 1.282 0.655 2.456 1.619 3.305 0.879 0.775 2.007 1.202 3.179 1.202 1.38 0 2.695-0.594 3.607-1.627 1.754-1.987 1.563-5.032-0.425-6.786C324.686 365.928 323.558 365.501 322.387 365.501z" fill="#89939e" data-fill-palette-color="quaternary"></path></g><g fill="#89939e" data-fill-palette-color="quaternary"><path d="M321.009 369.466c-0.073 0-0.146-0.005-0.221-0.014-0.702-0.088-1.274-0.587-1.459-1.271-0.035-0.131 0.042-0.267 0.175-0.302 0.13-0.036 0.267 0.042 0.302 0.174 0.132 0.49 0.542 0.846 1.044 0.909 0.331 0.042 0.656-0.048 0.917-0.251 0.262-0.203 0.429-0.496 0.47-0.826 0.086-0.679-0.397-1.301-1.076-1.387-0.135-0.018-0.231-0.141-0.214-0.275 0.017-0.135 0.13-0.239 0.275-0.214 0.949 0.12 1.623 0.989 1.503 1.938-0.058 0.46-0.291 0.869-0.657 1.153C321.763 369.341 321.393 369.466 321.009 369.466z" fill="#89939e" data-fill-palette-color="quaternary"></path></g><g fill="#89939e" data-fill-palette-color="quaternary"><path d="M319.523 371.845c-0.044 0-0.09-0.003-0.135-0.009-0.428-0.054-0.777-0.358-0.89-0.775-0.036-0.131 0.042-0.267 0.174-0.303 0.131-0.035 0.267 0.042 0.303 0.174 0.061 0.223 0.248 0.386 0.475 0.414 0.151 0.02 0.299-0.022 0.418-0.114 0.118-0.093 0.194-0.226 0.214-0.376s-0.022-0.298-0.114-0.417c-0.093-0.119-0.226-0.195-0.376-0.214-0.135-0.017-0.231-0.14-0.214-0.275 0.017-0.135 0.123-0.238 0.275-0.214 0.579 0.073 0.99 0.603 0.918 1.183-0.036 0.28-0.178 0.531-0.401 0.704C319.981 371.767 319.757 371.845 319.523 371.845z" fill="#89939e" data-fill-palette-color="quaternary"></path></g><g fill="#89939e" data-fill-palette-color="quaternary"><path d="M331.915 384.912c-1.823 0-3.482-1-4.334-2.609-0.612-1.156-0.736-2.482-0.35-3.732 0.386-1.25 1.234-2.275 2.391-2.887 0.704-0.372 1.494-0.569 2.285-0.569 1.822 0 3.482 1 4.334 2.609 1.261 2.387 0.346 5.357-2.041 6.618C333.497 384.716 332.706 384.912 331.915 384.912zM331.907 376.102c-0.632 0-1.262 0.157-1.826 0.454-0.923 0.488-1.601 1.307-1.909 2.305-0.308 0.999-0.208 2.056 0.281 2.98 0.679 1.285 2.005 2.084 3.461 2.084 0.631 0 1.261-0.157 1.825-0.454 1.907-1.008 2.636-3.379 1.628-5.286C334.688 376.901 333.362 376.102 331.907 376.102z" fill="#89939e" data-fill-palette-color="quaternary"></path></g><g fill="#89939e" data-fill-palette-color="quaternary"><path d="M331.101 379.506c-0.024 0-0.048 0-0.072-0.002-0.605-0.029-1.127-0.416-1.329-0.986-0.046-0.128 0.021-0.269 0.15-0.315 0.127-0.047 0.268 0.022 0.314 0.15 0.135 0.381 0.483 0.639 0.887 0.659 0.263 0.011 0.516-0.079 0.713-0.256 0.195-0.178 0.31-0.421 0.323-0.685s-0.078-0.517-0.256-0.712c-0.178-0.196-0.421-0.311-0.685-0.323-0.136-0.006-0.241-0.122-0.235-0.257 0.007-0.136 0.126-0.25 0.258-0.235 0.396 0.019 0.76 0.19 1.027 0.483 0.267 0.293 0.402 0.673 0.385 1.068-0.02 0.396-0.19 0.76-0.484 1.027C331.821 379.37 331.47 379.506 331.101 379.506z" fill="#89939e" data-fill-palette-color="quaternary"></path></g><g fill="#89939e" data-fill-palette-color="quaternary"><path d="M329.635 381.678c-0.015 0-0.03 0-0.044-0.001-0.376-0.018-0.699-0.258-0.825-0.613-0.045-0.128 0.021-0.269 0.15-0.315 0.126-0.045 0.268 0.022 0.314 0.151 0.059 0.165 0.209 0.276 0.384 0.285 0.227-0.007 0.437-0.172 0.448-0.407 0.012-0.236-0.172-0.436-0.406-0.448-0.136-0.006-0.241-0.122-0.235-0.258 0.007-0.136 0.134-0.241 0.258-0.234 0.507 0.024 0.9 0.457 0.877 0.964C330.531 381.293 330.123 381.678 329.635 381.678z" fill="#89939e" data-fill-palette-color="quaternary"></path></g><path d="M303.393 399.773h-2.58c-0.343 0-0.622-0.289-0.622-0.646v-9.162c0-0.357 0.278-0.646 0.622-0.646h2.228c0.369 0 0.658 0.331 0.618 0.712-0.066 0.633-0.135 1.612-0.084 2.623 0.183 3.614 0.343 5.505 0.436 6.407C304.051 399.443 303.763 399.773 303.393 399.773z" fill="#89939e" data-fill-palette-color="quaternary"></path><path d="M297.673 391.062c0.046 0 0.085 0.036 0.085 0.079v6.623c0 0.043-0.037 0.079-0.085 0.079h-8.453c-0.046 0-0.085-0.035-0.085-0.079v-6.623c0-0.043 0.037-0.079 0.085-0.079H297.673M297.673 390.686h-8.453c-0.27 0-0.49 0.204-0.49 0.456v6.623c0 0.252 0.22 0.456 0.49 0.456h8.452c0.27 0 0.49-0.204 0.49-0.456v-6.623C298.163 390.89 297.943 390.686 297.673 390.686L297.673 390.686z" fill="#89939e" data-fill-palette-color="quaternary"></path><path d="M294.729 405.14h-2.525c-0.261 0-0.473-0.212-0.473-0.473v-1.736c0-0.261 0.212-0.473 0.473-0.473h2.525c0.261 0 0.473 0.212 0.473 0.473v1.736C295.203 404.928 294.991 405.14 294.729 405.14z" fill="#89939e" data-fill-palette-color="quaternary"></path><path d="M295.361 413.345h-3.786c-0.261 0-0.473-0.212-0.473-0.473v-1.578c0-0.261 0.212-0.473 0.473-0.473h3.786c0.261 0 0.473 0.212 0.473 0.473v1.578C295.834 413.133 295.622 413.345 295.361 413.345z" fill="#89939e" data-fill-palette-color="quaternary"></path><path d="M294.729 405.455h-2.525c-0.014 0-0.026-0.003-0.039-0.004v5.053h2.604v-5.053C294.756 405.452 294.743 405.455 294.729 405.455z" fill="#89939e" data-fill-palette-color="quaternary"></path><path d="M302.607 434.591l-6.965-20.985c-0.088 0.034-0.181 0.054-0.281 0.054h-3.786c-0.123 0-0.239-0.031-0.343-0.082l-8.651 23.491c-0.065 0.176 0.065 0.386 0.29 0.469l0.889 0.327c0.225 0.083 0.46 0.007 0.525-0.169l8.536-23.18 2.62 26.833c0.021 0.211 0.231 0.363 0.469 0.339l0.942-0.092c0.239-0.024 0.415-0.213 0.395-0.424l-2.348-24.051 5.988 18.041c0.055 0.165 0.284 0.238 0.511 0.162l0.899-0.298C302.522 434.951 302.661 434.756 302.607 434.591z" fill="#89939e" data-fill-palette-color="quaternary"></path><polygon points="293.491,424.645 288.999,425.804 288.573,426.961 293.704,426.819 " fill="#89939e" data-fill-palette-color="quaternary"></polygon><polygon points="296.997,424.451 295.928,424.44 296.121,426.419 297.487,425.93 " fill="#89939e" data-fill-palette-color="quaternary"></polygon><g fill="#89939e" data-fill-palette-color="quaternary"><rect x="292.796" y="400.004" width="1.341" height="2.137" fill="#89939e" data-fill-palette-color="quaternary"></rect></g><path d="M299.786 389.966c0-0.128 0.027-0.25 0.07-0.363h-4.107l-0.219-0.509c-0.173-0.4-0.59-0.663-1.054-0.663h-2.124c-0.464 0-0.881 0.262-1.053 0.663l-0.219 0.509h-4.757c-0.504 0-0.912 0.38-0.912 0.847v8.193c0 0.468 0.408 0.847 0.912 0.847h13.533c-0.043-0.113-0.07-0.235-0.07-0.363v-9.162h0V389.966zM298.569 397.764c0 0.459-0.401 0.832-0.896 0.832h-8.453c-0.494 0-0.896-0.373-0.896-0.832v-6.623c0-0.459 0.401-0.832 0.896-0.832h8.452c0.494 0 0.896 0.373 0.896 0.832L298.569 397.764 298.569 397.764z" fill="#89939e" data-fill-palette-color="quaternary"></path></svg></g></svg></g><path d="M25.861 107.631v0c-0.139 0.205-0.283 0.326-0.432 0.364-0.147 0.032-0.292 0.021-0.436-0.031v0c-0.038-0.014-0.062-0.026-0.072-0.037-0.013-0.005-0.034-0.013-0.066-0.024v0c-1.194-0.544-2.445-1.115-3.753-1.715-1.306-0.606-2.636-1.224-3.99-1.855-1.345-0.635-2.691-1.269-4.036-1.904-1.339-0.632-2.641-1.251-3.905-1.855v0l-0.003 0.009c-0.018 0.05-0.028 0.192-0.028 0.427-0.009 0.238-0.019 0.508-0.03 0.81-0.009 0.295-0.029 0.593-0.061 0.894-0.036 0.292-0.086 0.526-0.151 0.702v0c-0.053 0.144-0.147 0.227-0.282 0.248-0.136 0.021-0.273 0.007-0.411-0.043v0c-0.1-0.037-0.192-0.088-0.274-0.154v0c-0.771-0.63-1.485-1.254-2.14-1.871-0.649-0.614-1.325-1.235-2.026-1.861v0c-0.147-1.035-0.225-2.083-0.235-3.145-0.003-1.06 0.054-2.109 0.171-3.146 0.114-1.031 0.282-2.043 0.503-3.035 0.227-0.99 0.503-1.927 0.826-2.81v0c0.454-1.241 1.014-2.361 1.678-3.362 0.667-1.007 1.413-1.821 2.237-2.443 0.829-0.613 1.731-1.012 2.708-1.194 0.974-0.176 2-0.067 3.078 0.327v0c0.47 0.172 0.883 0.441 1.24 0.806 0.359 0.359 0.673 0.772 0.943 1.24 0.276 0.47 0.51 0.965 0.704 1.484 0.185 0.523 0.345 1.029 0.478 1.518v0c0.597-0.407 1.137-0.767 1.621-1.08 0.486-0.319 0.961-0.568 1.425-0.747 0.463-0.179 0.944-0.269 1.443-0.272 0.496 0.004 1.057 0.121 1.684 0.35v0c0.959 0.351 1.813 0.852 2.562 1.503 0.741 0.655 1.378 1.41 1.91 2.266 0.53 0.862 0.952 1.805 1.267 2.83 0.308 1.022 0.503 2.082 0.585 3.177 0.082 1.096 0.049 2.207-0.1 3.332-0.149 1.125-0.417 2.217-0.805 3.277v0c-0.14 0.382-0.367 0.886-0.68 1.509-0.318 0.616-0.661 1.261-1.029 1.937-0.366 0.669-0.741 1.324-1.124 1.966-0.384 0.641-0.715 1.177-0.994 1.608zM10.015 92.909v0c1.269 0.706 2.566 1.387 3.89 2.042 1.332 0.651 2.631 1.268 3.895 1.852 1.262 0.59 2.466 1.137 3.61 1.641 1.142 0.51 2.159 0.975 3.05 1.394v0c0.167-0.457 0.322-0.959 0.465-1.504 0.145-0.551 0.25-1.11 0.315-1.675 0.067-0.572 0.091-1.143 0.072-1.711-0.019-0.568-0.107-1.095-0.265-1.579-0.157-0.484-0.398-0.913-0.722-1.288-0.319-0.372-0.741-0.655-1.267-0.847v0c-0.32-0.117-0.637-0.123-0.953-0.019-0.316 0.105-0.616 0.276-0.902 0.513-0.286 0.237-0.554 0.515-0.806 0.834-0.252 0.32-0.479 0.638-0.681 0.956-0.204 0.323-0.377 0.622-0.52 0.897-0.143 0.275-0.255 0.482-0.335 0.623v0c-0.082 0.147-0.177 0.23-0.282 0.249-0.11 0.009-0.234-0.011-0.372-0.062v0c-0.144-0.053-0.33-0.224-0.558-0.513-0.234-0.292-0.547-0.69-0.938-1.196v0l-0.885-1.134c0-0.348-0.02-0.732-0.058-1.152-0.042-0.428-0.117-0.835-0.225-1.222-0.107-0.387-0.265-0.733-0.473-1.037-0.2-0.308-0.466-0.522-0.798-0.644v0c-0.934-0.342-1.722-0.403-2.364-0.183-0.644 0.226-1.105 0.718-1.382 1.477v0c-0.317 0.865-0.487 1.961-0.511 3.288zM26.461 60.439l4.197 3.928c-0.156 0.202-0.328 0.429-0.516 0.682-0.193 0.249-0.383 0.524-0.57 0.824v0c-0.281 0.454-0.526 0.938-0.734 1.453-0.218 0.517-0.338 1.047-0.36 1.59-0.022 0.543 0.075 1.083 0.293 1.618 0.222 0.53 0.621 1.032 1.199 1.507v0c0.715 0.544 1.305 0.992 1.77 1.343 0.46 0.347 0.839 0.629 1.137 0.845 0.307 0.214 0.549 0.387 0.726 0.52 0.182 0.136 0.352 0.261 0.51 0.374v0c0.04 0.025 0.15 0.101 0.33 0.228 0.171 0.129 0.373 0.286 0.604 0.469 0.229 0.189 0.478 0.382 0.748 0.58 0.272 0.207 0.524 0.403 0.756 0.586 0.223 0.185 0.423 0.344 0.599 0.477 0.18 0.127 0.29 0.203 0.33 0.227v0c0.085 0.053 0.158 0.094 0.218 0.124 0.06 0.029 0.116 0.06 0.167 0.091v0c0.079 0.049 0.123 0.131 0.131 0.246 0.008 0.115-0.034 0.328-0.126 0.64v0l-1.07 5c-0.025 0.142-0.064 0.325-0.118 0.552-0.056 0.217-0.138 0.413-0.246 0.589v0c-0.091 0.148-0.204 0.254-0.34 0.319-0.141 0.062-0.299 0.039-0.474-0.07v0l-14.491-10.806c-0.319-0.245-0.53-0.43-0.632-0.556-0.102-0.126-0.116-0.295-0.04-0.507v0c0.392-1.052 0.804-2.136 1.235-3.25 0.425-1.118 0.78-2.237 1.065-3.356v0c0.053-0.085 0.096-0.129 0.128-0.132 0.035 0.006 0.079 0.025 0.13 0.057v0c0.017 0.011 0.048 0.03 0.094 0.058 0.036 0.03 0.116 0.103 0.241 0.219 0.133 0.114 0.329 0.286 0.586 0.517 0.267 0.228 0.64 0.545 1.119 0.951v0c-0.083-0.703-0.1-1.436-0.052-2.198 0.043-0.766 0.131-1.504 0.264-2.215 0.137-0.716 0.31-1.382 0.519-1.998 0.2-0.614 0.424-1.123 0.673-1.526zM43.454 40.943l11.39 12.674c0.026 0.041 0.056 0.077 0.091 0.108 0.03 0.027 0.057 0.051 0.083 0.073v0c0.229 0.204 0.452 0.336 0.667 0.395 0.212 0.064 0.402 0.095 0.573 0.095 0.175-0.005 0.323-0.016 0.445-0.033 0.121-0.026 0.207-0.017 0.256 0.028v0c0.124 0.111 0.119 0.352-0.015 0.724v0l-1.692 5.038c-0.004 0.014-0.03 0.049-0.079 0.104v0c-0.067 0.075-0.193 0.091-0.38 0.05-0.191-0.036-0.413-0.109-0.665-0.218-0.261-0.108-0.528-0.23-0.8-0.365-0.268-0.141-0.519-0.275-0.753-0.404v0c0.151 1.164 0.088 2.212-0.19 3.144-0.287 0.933-0.722 1.726-1.304 2.379v0c-0.675 0.757-1.504 1.35-2.487 1.779-0.978 0.424-2.024 0.64-3.139 0.646-1.124 0.007-2.276-0.211-3.455-0.654-1.178-0.443-2.315-1.154-3.411-2.132v0c-1.29-1.151-2.303-2.391-3.04-3.719-0.728-1.329-1.191-2.655-1.389-3.977-0.199-1.331-0.125-2.611 0.222-3.841 0.346-1.23 0.946-2.322 1.798-3.278v0c0.604-0.677 1.314-1.197 2.131-1.56 0.816-0.363 1.683-0.623 2.6-0.779v0c-0.224-0.29-0.414-0.513-0.57-0.67-0.15-0.152-0.26-0.285-0.328-0.399-0.059-0.115-0.063-0.23-0.012-0.347 0.05-0.116 0.159-0.288 0.325-0.515v0c0.492-0.732 0.985-1.455 1.479-2.168 0.503-0.714 1.052-1.44 1.649-2.178zM49.621 57.26l-3.512-4.154c-0.433-0.547-0.865-1.04-1.296-1.478-0.422-0.439-0.818-0.837-1.188-1.195v0c-0.238 0.047-0.488 0.101-0.75 0.163-0.271 0.063-0.545 0.144-0.822 0.246-0.273 0.105-0.537 0.236-0.793 0.392-0.251 0.151-0.481 0.344-0.691 0.578v0c-0.44 0.493-0.647 1.046-0.621 1.659 0.02 0.609 0.171 1.222 0.451 1.839 0.276 0.613 0.635 1.193 1.078 1.739 0.437 0.542 0.855 0.991 1.253 1.347v0c1.429 1.275 2.644 2.024 3.644 2.246 0.995 0.218 1.793-0.01 2.393-0.682v0c0.24-0.269 0.432-0.639 0.575-1.11 0.148-0.476 0.241-1.006 0.279-1.59zM61.916 52.78l-14.074-22.781c-0.043-0.059-0.085-0.111-0.126-0.156-0.041-0.045-0.079-0.091-0.114-0.139v0c-0.067-0.092-0.087-0.193-0.061-0.303 0.023-0.116 0.141-0.305 0.354-0.569v0l3.402-3.997c0.096-0.095 0.205-0.24 0.326-0.436 0.127-0.2 0.274-0.361 0.441-0.483v0c0.345-0.252 0.631-0.222 0.859 0.091v0c0.016 0.022 0.147 0.235 0.395 0.641 0.253 0.402 0.561 0.904 0.926 1.506 0.359 0.605 0.758 1.264 1.196 1.977 0.429 0.712 0.836 1.393 1.222 2.046 0.382 0.647 0.715 1.217 1.001 1.71 0.282 0.488 0.458 0.814 0.528 0.978v0c0.275-0.597 0.579-1.187 0.914-1.77 0.336-0.592 0.693-1.155 1.072-1.689 0.385-0.537 0.794-1.034 1.228-1.492 0.44-0.462 0.894-0.864 1.363-1.206v0c0.598-0.437 1.217-0.761 1.856-0.972 0.643-0.205 1.305-0.25 1.984-0.135 0.675 0.11 1.358 0.405 2.047 0.885 0.684 0.484 1.366 1.192 2.048 2.124v0c0.169 0.232 0.342 0.473 0.517 0.726 0.174 0.261 0.342 0.536 0.502 0.823v0l3.751 6.459c0.255 0.45 0.538 0.9 0.85 1.35 0.321 0.451 0.653 0.911 0.995 1.38v0c0.059 0.081 0.111 0.146 0.156 0.196 0.039 0.054 0.073 0.1 0.1 0.138v0c0.063 0.086 0.077 0.179 0.043 0.278-0.04 0.104-0.157 0.288-0.352 0.555v0l-2.87 3.621c-0.084 0.111-0.192 0.264-0.323 0.459-0.129 0.185-0.277 0.339-0.444 0.461v0c-0.167 0.122-0.319 0.179-0.457 0.172-0.147-0.009-0.299-0.121-0.456-0.336v0c-0.465-0.784-0.84-1.415-1.123-1.894-0.288-0.484-0.516-0.871-0.686-1.16-0.175-0.285-0.303-0.506-0.384-0.662-0.085-0.161-0.161-0.3-0.229-0.415-0.077-0.117-0.158-0.256-0.243-0.418-0.081-0.156-0.211-0.379-0.39-0.67-0.174-0.295-0.403-0.681-0.686-1.159-0.288-0.484-0.664-1.118-1.13-1.903v0c-0.25-0.421-0.493-0.838-0.729-1.252-0.24-0.419-0.479-0.791-0.714-1.115v0c-0.299-0.41-0.594-0.768-0.886-1.076-0.287-0.303-0.576-0.534-0.866-0.694-0.286-0.154-0.578-0.231-0.874-0.229-0.292 0.007-0.592 0.123-0.899 0.347v0c-0.221 0.161-0.49 0.432-0.807 0.813-0.317 0.38-0.587 0.825-0.81 1.335-0.217 0.506-0.343 1.052-0.377 1.639-0.029 0.583 0.135 1.158 0.49 1.724v0c0.466 0.808 0.853 1.468 1.161 1.979 0.307 0.511 0.561 0.937 0.76 1.279 0.201 0.332 0.361 0.596 0.479 0.791 0.122 0.2 0.237 0.381 0.345 0.541v0c0.025 0.056 0.095 0.187 0.212 0.391 0.126 0.206 0.269 0.453 0.429 0.74 0.166 0.284 0.341 0.586 0.525 0.906 0.19 0.316 0.367 0.616 0.533 0.899 0.171 0.28 0.32 0.523 0.445 0.729 0.122 0.2 0.2 0.325 0.236 0.373v0c0.059 0.081 0.111 0.146 0.156 0.196 0.045 0.05 0.085 0.099 0.12 0.148v0c0.055 0.075 0.065 0.168 0.028 0.277-0.031 0.105-0.147 0.285-0.349 0.54v0l-2.857 4.132c-0.076 0.122-0.182 0.277-0.316 0.467-0.138 0.184-0.291 0.337-0.459 0.459v0c-0.146 0.106-0.296 0.154-0.452 0.144-0.156-0.01-0.307-0.115-0.453-0.314zM80.155 30.96v0c-0.589-1.562-1.172-3.105-1.75-4.628-0.571-1.526-1.18-3.082-1.825-4.669v0c-0.153-0.371-0.239-0.637-0.259-0.798-0.02-0.161 0.059-0.311 0.236-0.451v0c0.831-0.639 1.704-1.306 2.619-2.001 0.912-0.701 1.763-1.443 2.554-2.225v0c0.027-0.021 0.073-0.047 0.139-0.079v0c0.12-0.059 0.2-0.046 0.242 0.037v0l6.345 16.613c0.141 0.377 0.222 0.642 0.245 0.794 0.026 0.158-0.05 0.307-0.227 0.446v0c-0.784 0.735-1.562 1.511-2.335 2.33-0.776 0.812-1.602 1.657-2.48 2.534v0c-0.033 0.024-0.082 0.052-0.148 0.084v0c-0.12 0.059-0.206 0.034-0.26-0.073v0c-0.006-0.012-0.066-0.165-0.18-0.458-0.114-0.293-0.262-0.67-0.444-1.131-0.185-0.467-0.389-0.988-0.612-1.563-0.232-0.578-0.461-1.157-0.686-1.737-0.223-0.575-0.44-1.13-0.651-1.665-0.202-0.533-0.377-0.986-0.523-1.36zM74.98 17.341v0c-0.194-0.485-0.346-0.856-0.458-1.113-0.106-0.26-0.182-0.453-0.229-0.579-0.05-0.132-0.084-0.215-0.101-0.252-0.015-0.03-0.023-0.055-0.026-0.076-0.003-0.021-0.013-0.057-0.031-0.108-0.024-0.048-0.068-0.153-0.132-0.314-0.067-0.168-0.163-0.407-0.286-0.718-0.132-0.314-0.305-0.75-0.519-1.307v0c-0.159-0.368-0.248-0.633-0.268-0.794-0.014-0.164 0.065-0.314 0.236-0.45v0c0.837-0.642 1.71-1.309 2.62-2.001 0.912-0.701 1.763-1.443 2.554-2.225v0c0.033-0.024 0.082-0.052 0.148-0.084v0c0.059 0.045 0.122 0.067 0.187 0.063v0l0.072 0.01 1.835 4.642c0.141 0.377 0.222 0.649 0.245 0.816 0.02 0.161-0.054 0.306-0.223 0.433v0c-0.837 0.627-1.679 1.275-2.525 1.943-0.843 0.675-1.742 1.373-2.696 2.095v0c-0.03 0.03-0.078 0.061-0.144 0.093v0c-0.12 0.059-0.206 0.034-0.259-0.074zM124.37 24.893l-4.035 2.291c-0.12 0.072-0.276 0.173-0.471 0.305-0.189 0.124-0.384 0.211-0.584 0.262v0c-0.168 0.043-0.324 0.041-0.466-0.006-0.144-0.053-0.242-0.18-0.292-0.38v0l-0.028-0.107c-0.132-0.875-0.237-1.589-0.314-2.141-0.078-0.552-0.141-0.993-0.191-1.325-0.045-0.34-0.076-0.6-0.095-0.781-0.023-0.173-0.041-0.337-0.052-0.493-0.017-0.147-0.038-0.314-0.065-0.5-0.025-0.18-0.062-0.435-0.111-0.767-0.043-0.333-0.106-0.772-0.189-1.315-0.084-0.55-0.194-1.269-0.329-2.157v0c-0.074-0.484-0.144-0.965-0.211-1.444-0.065-0.472-0.146-0.903-0.244-1.291v0c-0.126-0.498-0.266-0.941-0.419-1.329-0.155-0.394-0.336-0.717-0.544-0.967-0.21-0.257-0.451-0.436-0.725-0.54-0.275-0.109-0.598-0.117-0.967-0.024v0c-0.22 0.056-0.496 0.177-0.827 0.365-0.339 0.182-0.659 0.442-0.959 0.779-0.302 0.331-0.551 0.732-0.749 1.202-0.191 0.468-0.254 1.011-0.187 1.627v0l0.017 0.068c0.197 1.375 0.365 2.568 0.504 3.58 0.139 1.011 0.256 1.88 0.35 2.606 0.094 0.726 0.175 1.329 0.241 1.808 0.068 0.485 0.126 0.894 0.176 1.226 0.043 0.333 0.081 0.606 0.114 0.818 0.041 0.217 0.085 0.419 0.133 0.606v0c0.025 0.097 0.048 0.177 0.071 0.24 0.016 0.065 0.03 0.12 0.042 0.165v0c0.023 0.091 0.001 0.179-0.067 0.265-0.074 0.088-0.251 0.218-0.531 0.393v0l-3.841 2.242c-0.12 0.072-0.273 0.172-0.461 0.303-0.195 0.125-0.393 0.213-0.594 0.264v0c-0.162 0.041-0.314 0.038-0.456-0.009-0.144-0.053-0.242-0.18-0.293-0.38v0l-0.027-0.107c-0.139-0.874-0.25-1.585-0.334-2.135-0.078-0.552-0.138-0.994-0.181-1.328-0.045-0.34-0.076-0.6-0.095-0.781-0.017-0.175-0.037-0.338-0.062-0.491-0.017-0.147-0.035-0.315-0.055-0.502-0.025-0.18-0.062-0.435-0.111-0.767-0.056-0.33-0.122-0.768-0.198-1.313-0.084-0.55-0.197-1.268-0.339-2.155v0c-0.068-0.485-0.135-0.968-0.201-1.446-0.065-0.472-0.146-0.903-0.244-1.291v0c-0.126-0.498-0.263-0.942-0.41-1.332-0.148-0.396-0.323-0.72-0.525-0.972-0.197-0.26-0.419-0.445-0.667-0.554-0.256-0.114-0.549-0.129-0.879-0.045v0c-0.233 0.059-0.538 0.202-0.914 0.427-0.372 0.218-0.728 0.511-1.068 0.88-0.339 0.375-0.608 0.822-0.807 1.34-0.199 0.519-0.239 1.107-0.121 1.765v0c0.124 0.898 0.227 1.632 0.31 2.204 0.083 0.571 0.154 1.042 0.213 1.412 0.051 0.366 0.094 0.658 0.129 0.876 0.043 0.223 0.081 0.43 0.116 0.622v0c-0.001 0.049 0.013 0.186 0.043 0.412 0.036 0.225 0.076 0.49 0.119 0.796 0.049 0.304 0.102 0.635 0.158 0.993 0.061 0.349 0.117 0.679 0.168 0.99 0.049 0.304 0.096 0.568 0.138 0.791 0.035 0.218 0.058 0.35 0.07 0.395v0l0.081 0.321c0.029 0.116 0.048 0.218 0.056 0.305 0.008 0.087-0.008 0.174-0.047 0.26-0.042 0.079-0.11 0.165-0.204 0.258-0.095 0.086-0.235 0.187-0.419 0.302v0l-4.204 2.81c-0.116 0.085-0.272 0.189-0.467 0.314-0.191 0.117-0.386 0.201-0.587 0.252v0c-0.168 0.043-0.324 0.041-0.466-0.006-0.144-0.053-0.242-0.18-0.293-0.38v0l-2.958-18.375c-0.066-0.396-0.092-0.675-0.078-0.837 0.022-0.157 0.13-0.288 0.324-0.392v0c1.015-0.477 2.054-0.968 3.118-1.471 1.059-0.495 2.082-1.05 3.069-1.665v0c0.091-0.023 0.149-0.024 0.174-0.003 0.028 0.027 0.049 0.07 0.064 0.129v0l0.418 2.63c0.378-0.33 0.805-0.696 1.281-1.098 0.47-0.401 0.974-0.79 1.512-1.168 0.539-0.371 1.098-0.708 1.674-1.012 0.579-0.298 1.162-0.521 1.751-0.671v0c0.809-0.205 1.606-0.21 2.392-0.017 0.779 0.195 1.5 0.663 2.162 1.404v0c0.445-0.471 0.925-0.929 1.438-1.376 0.521-0.442 1.062-0.847 1.623-1.216 0.569-0.364 1.149-0.683 1.741-0.957 0.59-0.28 1.179-0.495 1.767-0.644v0c0.738-0.187 1.463-0.257 2.178-0.21 0.714 0.046 1.374 0.248 1.98 0.603 0.608 0.362 1.152 0.892 1.632 1.591 0.478 0.691 0.857 1.59 1.136 2.696v0c0.072 0.285 0.139 0.577 0.202 0.878 0.062 0.301 0.114 0.615 0.156 0.942v0l1.106 7.753c0.066 0.506 0.145 0.968 0.237 1.386 0.094 0.424 0.21 0.911 0.349 1.461v0c0.025 0.097 0.048 0.177 0.071 0.24 0.023 0.063 0.04 0.117 0.052 0.162v0c0.026 0.104 0.001 0.196-0.075 0.277-0.069 0.08-0.244 0.206-0.523 0.381zM152.186 15.077l-2.123 9.884c-0.026 0.104-0.063 0.207-0.109 0.31-0.039 0.096-0.128 0.166-0.268 0.209v0c-0.05 0.021-0.299 0.077-0.747 0.169-0.443 0.1-0.958 0.214-1.545 0.343-0.581 0.13-1.159 0.26-1.733 0.391-0.568 0.131-1.004 0.232-1.309 0.301v0c-0.153 0.042-0.34 0.082-0.559 0.123-0.214 0.041-0.423 0.048-0.629 0.023v0c-0.172-0.021-0.316-0.08-0.432-0.175-0.115-0.102-0.158-0.268-0.13-0.5v0c0.066-0.53 0.142-1.011 0.23-1.444 0.081-0.434 0.177-0.889 0.29-1.366 0.105-0.471 0.221-0.995 0.346-1.571 0.125-0.576 0.264-1.265 0.418-2.067v0c0.191-1.052 0.38-2.064 0.568-3.036 0.194-0.971 0.394-1.982 0.598-3.033v0l0.64-3.047c0.096-0.499 0.196-1.008 0.3-1.527 0.098-0.519 0.198-1.055 0.3-1.607v0l0.472-2.18c0.002-0.02-0.029-0.034-0.096-0.043v0c-0.099-0.012-0.264-0.013-0.494 0-0.238 0.018-0.516 0.037-0.834 0.058-0.319 0.021-0.674 0.041-1.067 0.059-0.386 0.019-0.781 0.034-1.185 0.045v0c-0.093-0.011-0.183-0.046-0.27-0.104-0.081-0.05-0.118-0.105-0.111-0.165v0c0.006-0.046 0.02-0.082 0.044-0.106v0l3.553-4.744c0.68-0.064 1.414-0.121 2.2-0.171 0.781-0.058 1.615-0.092 2.505-0.103 0.896-0.01 1.842 0.006 2.838 0.049 0.997 0.043 2.048 0.133 3.154 0.27v0c1.248 0.182 2.449 0.455 3.6 0.82 1.158 0.372 2.164 0.877 3.02 1.514 0.856 0.637 1.51 1.438 1.962 2.401 0.445 0.963 0.583 2.13 0.413 3.501v0c-0.094 0.762-0.31 1.444-0.647 2.048-0.337 0.604-0.74 1.139-1.208 1.606-0.467 0.46-0.963 0.856-1.488 1.187-0.532 0.331-1.033 0.605-1.504 0.822-0.478 0.223-0.893 0.397-1.245 0.522-0.357 0.117-0.599 0.195-0.725 0.233v0c-0.002 0.02 0 0.05 0.009 0.092 0.016 0.036 0.047 0.107 0.094 0.213 0.046 0.113 0.115 0.27 0.204 0.469 0.096 0.2 0.214 0.474 0.353 0.821v0c0.156 0.315 0.337 0.728 0.542 1.237 0.205 0.516 0.449 1.125 0.732 1.826 0.29 0.702 0.623 1.486 1 2.353 0.384 0.861 0.83 1.794 1.337 2.798v0c0.183 0.204 0.404 0.346 0.664 0.425 0.26 0.073 0.505 0.127 0.736 0.162 0.224 0.035 0.415 0.072 0.571 0.111 0.151 0.032 0.218 0.114 0.202 0.247v0c-0.012 0.099-0.126 0.2-0.34 0.301-0.214 0.101-0.462 0.202-0.744 0.301-0.275 0.1-0.555 0.193-0.841 0.279-0.286 0.086-0.507 0.156-0.662 0.211v0c-0.309 0.11-0.628 0.211-0.955 0.305-0.328 0.094-0.68 0.198-1.058 0.313-0.385 0.12-0.809 0.263-1.273 0.427-0.463 0.158-0.992 0.354-1.587 0.59v0c-0.156 0.061-0.298 0.101-0.428 0.118-0.129 0.011-0.247 0.01-0.352-0.003v0c-0.219-0.027-0.401-0.1-0.548-0.219-0.14-0.118-0.257-0.257-0.352-0.417-0.088-0.159-0.156-0.319-0.203-0.479-0.048-0.154-0.089-0.283-0.123-0.388v0zM154.345 5.309l-1.664 7.57c0.609 0.076 1.264-0.001 1.965-0.23 0.701-0.229 1.353-0.555 1.957-0.978 0.598-0.43 1.111-0.935 1.539-1.514 0.429-0.586 0.683-1.196 0.762-1.832v0c0.216-1.742-0.723-2.742-2.815-3.002v0c-0.397-0.049-0.732-0.064-1.004-0.044-0.271 0.02-0.518 0.03-0.74 0.03zM167.628 29.705l11.076-24.38c0.025-0.069 0.045-0.133 0.059-0.191 0.014-0.059 0.032-0.116 0.052-0.173v0c0.039-0.107 0.112-0.18 0.218-0.219 0.109-0.046 0.332-0.053 0.669-0.023v0l5.215 0.598c0.132 0.027 0.314 0.036 0.544 0.028 0.237-0.006 0.452 0.026 0.647 0.097v0c0.401 0.146 0.536 0.401 0.403 0.764v0c-0.009 0.025-0.114 0.253-0.313 0.685-0.193 0.434-0.438 0.97-0.734 1.608-0.302 0.636-0.627 1.334-0.976 2.095-0.352 0.753-0.691 1.471-1.018 2.154-0.325 0.677-0.612 1.272-0.862 1.785-0.248 0.506-0.421 0.834-0.518 0.983v0c0.649-0.105 1.309-0.181 1.979-0.228 0.679-0.051 1.346-0.068 2-0.05 0.66 0.02 1.301 0.083 1.923 0.189 0.628 0.108 1.215 0.261 1.761 0.459v0c0.696 0.253 1.31 0.587 1.841 1.001 0.529 0.42 0.935 0.944 1.218 1.572 0.285 0.622 0.42 1.353 0.405 2.193-0.021 0.838-0.228 1.799-0.623 2.883v0c-0.098 0.27-0.203 0.548-0.314 0.834-0.12 0.29-0.254 0.582-0.404 0.876v0l-3.273 6.713c-0.232 0.462-0.448 0.948-0.648 1.458-0.196 0.518-0.393 1.05-0.591 1.595v0c-0.034 0.094-0.06 0.174-0.076 0.239-0.023 0.063-0.042 0.116-0.058 0.16v0c-0.037 0.1-0.106 0.164-0.208 0.191-0.108 0.024-0.327 0.03-0.656 0.017v0l-4.607-0.367c-0.139-0.008-0.326-0.012-0.56-0.012-0.226-0.004-0.436-0.041-0.631-0.112v0c-0.194-0.071-0.327-0.165-0.397-0.283-0.075-0.127-0.066-0.315 0.025-0.566v0c0.392-0.823 0.708-1.486 0.947-1.988 0.242-0.509 0.435-0.914 0.581-1.216 0.139-0.304 0.251-0.534 0.335-0.688 0.087-0.16 0.159-0.301 0.217-0.421 0.054-0.129 0.125-0.274 0.212-0.435 0.084-0.154 0.197-0.386 0.339-0.697 0.148-0.308 0.341-0.714 0.58-1.216 0.242-0.509 0.559-1.174 0.951-1.997v0c0.21-0.442 0.422-0.876 0.634-1.304 0.214-0.433 0.39-0.838 0.527-1.214v0c0.173-0.477 0.307-0.922 0.401-1.335 0.091-0.407 0.122-0.776 0.093-1.106-0.031-0.324-0.13-0.608-0.297-0.853-0.169-0.239-0.432-0.423-0.789-0.554v0c-0.257-0.094-0.632-0.166-1.124-0.217-0.493-0.051-1.013-0.028-1.56 0.071-0.541 0.101-1.065 0.301-1.572 0.6-0.5 0.301-0.886 0.757-1.158 1.368v0c-0.411 0.837-0.744 1.526-0.997 2.066-0.253 0.54-0.466 0.988-0.638 1.345-0.164 0.352-0.294 0.632-0.39 0.838-0.099 0.213-0.184 0.409-0.257 0.588v0c-0.033 0.052-0.102 0.183-0.207 0.394-0.101 0.219-0.226 0.475-0.375 0.768-0.143 0.296-0.296 0.609-0.46 0.941-0.157 0.334-0.307 0.648-0.45 0.944-0.137 0.298-0.256 0.557-0.357 0.776-0.099 0.213-0.158 0.347-0.178 0.403v0c-0.034 0.094-0.06 0.174-0.077 0.239-0.017 0.065-0.035 0.126-0.055 0.182v0c-0.032 0.088-0.103 0.147-0.214 0.178-0.104 0.033-0.319 0.037-0.643 0.011v0l-5.024-0.07c-0.144 0.005-0.332 0.004-0.563-0.003-0.23-0.013-0.442-0.054-0.637-0.125v0c-0.169-0.062-0.293-0.16-0.372-0.295-0.079-0.135-0.076-0.319 0.009-0.551zM219.493 32.563l-10.668 13.289c-0.036 0.032-0.067 0.068-0.092 0.107-0.021 0.034-0.041 0.065-0.059 0.093v0c-0.165 0.259-0.259 0.5-0.281 0.723-0.029 0.219-0.029 0.413-0.002 0.58 0.033 0.171 0.068 0.316 0.104 0.434 0.045 0.116 0.05 0.202 0.014 0.258v0c-0.09 0.141-0.329 0.175-0.717 0.101v0l-5.245-0.855c-0.015-0.002-0.053-0.022-0.115-0.062v0c-0.084-0.054-0.121-0.176-0.111-0.367 0.005-0.195 0.041-0.425 0.108-0.691 0.064-0.275 0.142-0.558 0.231-0.849 0.096-0.287 0.188-0.557 0.277-0.808v0c-1.124 0.337-2.168 0.444-3.134 0.32-0.967-0.133-1.82-0.434-2.558-0.903v0c-0.856-0.544-1.575-1.266-2.157-2.166-0.577-0.897-0.958-1.894-1.145-2.994-0.189-1.109-0.159-2.28 0.088-3.515 0.247-1.235 0.765-2.471 1.552-3.71v0c0.927-1.459 1.987-2.659 3.18-3.601 1.194-0.933 2.428-1.604 3.7-2.013 1.281-0.411 2.557-0.545 3.826-0.402 1.269 0.143 2.445 0.558 3.526 1.245v0c0.766 0.487 1.394 1.104 1.884 1.851 0.49 0.747 0.886 1.56 1.188 2.44v0c0.25-0.268 0.439-0.492 0.569-0.671 0.126-0.173 0.24-0.302 0.342-0.387 0.104-0.076 0.217-0.099 0.34-0.069 0.123 0.031 0.31 0.11 0.56 0.238v0c0.802 0.368 1.595 0.737 2.379 1.109 0.786 0.381 1.591 0.806 2.416 1.275zM204.386 41.285l3.532-4.136c0.47-0.516 0.887-1.022 1.25-1.519 0.365-0.487 0.694-0.943 0.987-1.365v0c-0.085-0.228-0.179-0.465-0.282-0.713-0.106-0.257-0.231-0.514-0.375-0.772-0.148-0.252-0.32-0.492-0.516-0.72-0.19-0.224-0.417-0.42-0.682-0.587v0c-0.558-0.354-1.137-0.47-1.737-0.346-0.597 0.118-1.178 0.366-1.742 0.743-0.56 0.371-1.075 0.819-1.543 1.344-0.465 0.519-0.84 1.004-1.126 1.455v0c-1.028 1.616-1.57 2.936-1.628 3.959-0.054 1.018 0.299 1.768 1.06 2.251v0c0.304 0.193 0.7 0.323 1.188 0.388 0.494 0.069 1.032 0.075 1.614 0.018zM232.006 74.507l-3.944-2.445c-0.12-0.071-0.284-0.16-0.492-0.267-0.199-0.107-0.369-0.236-0.51-0.388v0c-0.118-0.127-0.191-0.265-0.218-0.412-0.023-0.152 0.042-0.298 0.194-0.439v0l0.081-0.075c0.705-0.535 1.281-0.969 1.729-1.301 0.447-0.332 0.804-0.6 1.071-0.802 0.277-0.202 0.49-0.354 0.641-0.457 0.141-0.103 0.277-0.197 0.408-0.282 0.121-0.085 0.257-0.184 0.408-0.296 0.146-0.108 0.352-0.263 0.62-0.465 0.272-0.197 0.627-0.462 1.064-0.795 0.443-0.337 1.021-0.778 1.737-1.322v0c0.389-0.297 0.778-0.589 1.166-0.876 0.384-0.283 0.723-0.56 1.017-0.833v0c0.377-0.349 0.699-0.684 0.966-1.004 0.272-0.325 0.468-0.638 0.589-0.941 0.125-0.307 0.167-0.605 0.126-0.895-0.036-0.294-0.183-0.581-0.442-0.86v0c-0.154-0.166-0.393-0.35-0.715-0.551-0.323-0.211-0.704-0.367-1.144-0.469-0.435-0.106-0.906-0.134-1.414-0.082-0.503 0.056-1.009 0.261-1.518 0.615v0l-0.051 0.047c-1.113 0.831-2.08 1.55-2.902 2.156-0.821 0.606-1.528 1.125-2.121 1.555-0.593 0.431-1.083 0.79-1.472 1.077-0.394 0.292-0.724 0.539-0.991 0.742-0.272 0.197-0.493 0.361-0.664 0.491-0.171 0.14-0.327 0.276-0.469 0.407v0c-0.073 0.068-0.132 0.127-0.176 0.178-0.049 0.045-0.091 0.084-0.125 0.115v0c-0.069 0.063-0.157 0.086-0.265 0.068-0.112-0.023-0.312-0.116-0.598-0.278v0l-3.808-2.299c-0.12-0.071-0.282-0.157-0.486-0.259-0.204-0.112-0.376-0.243-0.516-0.395v0c-0.113-0.122-0.184-0.257-0.212-0.405-0.023-0.152 0.042-0.298 0.194-0.439v0l0.081-0.075c0.701-0.54 1.272-0.978 1.715-1.315 0.447-0.332 0.807-0.597 1.079-0.795 0.277-0.202 0.49-0.354 0.64-0.457 0.145-0.098 0.279-0.195 0.401-0.289 0.121-0.085 0.26-0.181 0.415-0.289 0.146-0.108 0.352-0.263 0.62-0.465 0.263-0.207 0.616-0.475 1.058-0.803 0.443-0.337 1.019-0.78 1.729-1.329v0c0.394-0.292 0.785-0.582 1.174-0.869 0.384-0.283 0.723-0.56 1.016-0.832v0c0.377-0.349 0.701-0.682 0.973-0.997 0.277-0.32 0.477-0.629 0.602-0.926 0.134-0.297 0.19-0.581 0.168-0.851-0.022-0.279-0.149-0.544-0.381-0.794v0c-0.163-0.176-0.434-0.376-0.813-0.598-0.369-0.222-0.797-0.394-1.283-0.516-0.491-0.118-1.012-0.14-1.563-0.067-0.551 0.073-1.087 0.32-1.608 0.739v0c-0.729 0.539-1.324 0.981-1.786 1.327-0.462 0.346-0.841 0.634-1.138 0.863-0.296 0.22-0.532 0.398-0.708 0.533-0.176 0.144-0.339 0.277-0.49 0.399v0c-0.043 0.022-0.157 0.1-0.342 0.235-0.18 0.14-0.394 0.301-0.642 0.485-0.243 0.189-0.509 0.394-0.795 0.615-0.278 0.221-0.541 0.428-0.789 0.621-0.243 0.189-0.453 0.356-0.628 0.5-0.175 0.135-0.28 0.218-0.314 0.25v0l-0.243 0.225c-0.088 0.082-0.169 0.147-0.241 0.196-0.073 0.049-0.156 0.077-0.251 0.082-0.09 0.001-0.198-0.017-0.324-0.054-0.121-0.042-0.277-0.117-0.466-0.224v0l-4.479-2.346c-0.13-0.062-0.297-0.148-0.5-0.26-0.194-0.111-0.361-0.243-0.502-0.394v0c-0.118-0.127-0.191-0.265-0.218-0.412-0.023-0.152 0.042-0.298 0.194-0.439v0l14.716-11.394c0.316-0.248 0.549-0.404 0.698-0.469 0.149-0.056 0.315-0.023 0.499 0.097v0c0.905 0.663 1.833 1.34 2.784 2.033 0.942 0.692 1.919 1.325 2.931 1.897v0c0.063 0.069 0.092 0.119 0.086 0.152-0.011 0.037-0.038 0.076-0.082 0.117v0l-2.11 1.627c0.47 0.174 0.996 0.373 1.578 0.598 0.577 0.22 1.16 0.476 1.749 0.768 0.584 0.296 1.147 0.625 1.691 0.986 0.539 0.365 1.014 0.771 1.426 1.216v0c0.567 0.612 0.953 1.309 1.16 2.092 0.202 0.777 0.136 1.634-0.197 2.57v0c0.626 0.166 1.259 0.367 1.896 0.604 0.638 0.246 1.252 0.527 1.845 0.843 0.592 0.325 1.15 0.681 1.673 1.07 0.528 0.384 0.999 0.798 1.412 1.244v0c0.517 0.558 0.926 1.162 1.227 1.81 0.301 0.649 0.44 1.325 0.418 2.028-0.027 0.707-0.232 1.439-0.615 2.194-0.378 0.751-0.986 1.514-1.823 2.289v0c-0.215 0.2-0.44 0.399-0.674 0.597-0.234 0.199-0.485 0.395-0.752 0.588v0l-6.278 4.683c-0.413 0.301-0.781 0.591-1.103 0.871-0.327 0.285-0.699 0.62-1.115 1.006v0c-0.073 0.068-0.132 0.127-0.177 0.177-0.044 0.05-0.084 0.091-0.118 0.123v0c-0.078 0.073-0.171 0.095-0.279 0.068-0.103-0.023-0.298-0.115-0.585-0.278zM243.773 96.413l-3.14-3.338c-0.097-0.1-0.233-0.228-0.406-0.386-0.164-0.155-0.294-0.324-0.391-0.508v0c-0.081-0.154-0.115-0.305-0.102-0.454 0.018-0.153 0.119-0.277 0.301-0.373v0l0.098-0.051c0.613-0.239 1.132-0.443 1.555-0.612 0.427-0.163 0.812-0.313 1.156-0.448 0.35-0.138 0.695-0.278 1.035-0.418 0.343-0.15 0.743-0.314 1.2-0.494 0.459-0.188 1-0.407 1.621-0.658 0.628-0.254 1.411-0.57 2.351-0.949v0c0.572-0.232 1.155-0.477 1.75-0.737 0.589-0.256 1.126-0.511 1.61-0.765v0c0.319-0.167 0.602-0.346 0.85-0.536 0.253-0.193 0.444-0.403 0.574-0.629 0.136-0.229 0.201-0.478 0.196-0.747-0.008-0.274-0.099-0.577-0.272-0.908v0c-0.13-0.248-0.361-0.56-0.695-0.936-0.336-0.382-0.739-0.72-1.21-1.015-0.474-0.301-0.999-0.512-1.575-0.633-0.579-0.126-1.174-0.055-1.787 0.214v0c-0.826 0.35-1.534 0.646-2.123 0.887-0.595 0.244-1.099 0.448-1.511 0.611-0.412 0.163-0.75 0.295-1.013 0.395-0.264 0.101-0.483 0.193-0.657 0.277v0c-0.048 0.01-0.175 0.054-0.383 0.133-0.198 0.081-0.441 0.179-0.728 0.292-0.281 0.11-0.579 0.232-0.893 0.366-0.317 0.128-0.615 0.251-0.893 0.366-0.287 0.113-0.529 0.213-0.724 0.301-0.204 0.085-0.327 0.138-0.369 0.159v0c-0.089 0.046-0.161 0.088-0.217 0.125-0.056 0.037-0.111 0.069-0.164 0.097v0c-0.083 0.043-0.175 0.039-0.278-0.012-0.102-0.052-0.265-0.196-0.487-0.434v0l-3.698-3.498c-0.109-0.093-0.248-0.221-0.415-0.381-0.158-0.158-0.285-0.329-0.382-0.512v0c-0.081-0.154-0.115-0.305-0.102-0.455 0.018-0.153 0.119-0.277 0.301-0.373v0l17.227-7.155c0.37-0.156 0.633-0.245 0.787-0.265 0.161-0.024 0.313 0.051 0.457 0.224v0c0.706 0.873 1.428 1.776 2.165 2.707 0.74 0.923 1.522 1.79 2.347 2.601v0c0.046 0.089 0.058 0.147 0.035 0.174-0.014 0.03-0.048 0.059-0.102 0.087v0c-0.024 0.012-0.058 0.026-0.102 0.043-0.05 0.019-0.156 0.055-0.316 0.109-0.163 0.048-0.411 0.129-0.743 0.242-0.332 0.114-0.796 0.271-1.392 0.47v0c0.822 0.519 1.535 1.03 2.138 1.535 0.601 0.514 1.126 1.019 1.574 1.515 0.446 0.505 0.824 0.996 1.134 1.474 0.311 0.478 0.582 0.938 0.815 1.381v0c0.793 1.513 0.911 2.853 0.355 4.018-0.557 1.166-1.754 2.231-3.593 3.195v0c-0.254 0.133-0.52 0.265-0.798 0.396-0.281 0.14-0.575 0.268-0.884 0.384v0l-7.31 2.894c-0.477 0.182-0.908 0.367-1.292 0.553-0.39 0.19-0.837 0.416-1.339 0.679v0c-0.089 0.046-0.161 0.088-0.217 0.125-0.056 0.037-0.105 0.066-0.146 0.088v0c-0.095 0.05-0.19 0.047-0.287-0.008-0.097-0.055-0.262-0.198-0.496-0.429zM252.84 100.688v0c1.631-0.354 3.243-0.706 4.834-1.055 1.593-0.342 3.222-0.717 4.885-1.123v0c0.389-0.097 0.665-0.143 0.828-0.139 0.162 0.004 0.3 0.104 0.411 0.299v0c0.511 0.916 1.043 1.877 1.597 2.884 0.56 1.005 1.169 1.955 1.828 2.852v0c0.017 0.03 0.036 0.08 0.058 0.149v0c0.041 0.127 0.017 0.205-0.072 0.233v0l-17.362 3.848c-0.394 0.084-0.667 0.126-0.821 0.127-0.16 0.002-0.296-0.094-0.409-0.29v0c-0.612-0.883-1.267-1.767-1.963-2.651-0.69-0.886-1.405-1.827-2.145-2.823v0c-0.019-0.036-0.039-0.089-0.061-0.159v0c-0.041-0.127-0.004-0.209 0.11-0.246v0c0.013-0.004 0.172-0.041 0.48-0.112 0.307-0.07 0.702-0.162 1.184-0.274 0.489-0.115 1.034-0.24 1.635-0.376 0.605-0.145 1.212-0.286 1.819-0.425 0.601-0.136 1.182-0.27 1.742-0.401 0.556-0.122 1.03-0.228 1.422-0.318zM267.069 97.559v0c0.508-0.121 0.897-0.217 1.168-0.29 0.273-0.066 0.475-0.114 0.607-0.141 0.138-0.03 0.225-0.051 0.263-0.064 0.032-0.01 0.058-0.015 0.08-0.015 0.021 0 0.058-0.005 0.111-0.014 0.051-0.016 0.161-0.045 0.33-0.085 0.176-0.042 0.426-0.102 0.752-0.178 0.33-0.085 0.786-0.192 1.368-0.323v0c0.387-0.103 0.662-0.153 0.825-0.148 0.165 0.01 0.302 0.11 0.411 0.299v0c0.513 0.922 1.045 1.883 1.597 2.884 0.56 1.005 1.169 1.955 1.828 2.852v0c0.019 0.036 0.039 0.089 0.061 0.159v0c-0.053 0.052-0.084 0.111-0.091 0.176v0l-0.019 0.069-4.86 1.136c-0.394 0.084-0.675 0.125-0.844 0.124-0.162-0.004-0.294-0.098-0.396-0.284v0c-0.498-0.92-1.016-1.847-1.553-2.782-0.544-0.933-1.103-1.924-1.677-2.973v0c-0.025-0.034-0.049-0.086-0.071-0.156v0c-0.041-0.127-0.004-0.209 0.11-0.246zM5.662 182.369v0c-0.026-0.261 0.007-0.458 0.1-0.593 0.095-0.128 0.22-0.221 0.377-0.279v0c0.038-0.014 0.064-0.02 0.079-0.018 0.015 0.002 0.038-0.003 0.069-0.015v0c1.336-0.39 2.738-0.795 4.205-1.214 1.464-0.41 2.958-0.824 4.483-1.241 1.519-0.416 3.034-0.83 4.547-1.244 1.519-0.416 2.993-0.815 4.424-1.199v0l-0.007-0.019c-0.016-0.044-0.107-0.163-0.272-0.358-0.157-0.191-0.335-0.413-0.536-0.665-0.192-0.249-0.38-0.503-0.562-0.763-0.176-0.262-0.298-0.484-0.365-0.665v0c-0.058-0.156-0.04-0.288 0.056-0.395 0.093-0.113 0.212-0.196 0.356-0.25v0c0.113-0.042 0.223-0.062 0.33-0.059v0c1.059-0.024 2.062-0.017 3.01 0.023 0.943 0.048 1.915 0.085 2.915 0.111v0c0.828 0.732 1.61 1.523 2.347 2.373 0.735 0.845 1.411 1.725 2.03 2.641 0.616 0.91 1.175 1.838 1.677 2.783 0.498 0.954 0.921 1.9 1.27 2.839v0c0.487 1.307 0.809 2.594 0.967 3.859 0.149 1.262 0.106 2.428-0.129 3.498-0.238 1.064-0.689 2.005-1.353 2.822-0.66 0.808-1.563 1.426-2.708 1.851v0c-0.494 0.184-1.009 0.255-1.544 0.212-0.538-0.049-1.077-0.169-1.619-0.359-0.538-0.184-1.065-0.422-1.58-0.715-0.512-0.286-0.988-0.579-1.427-0.878v0c-0.205 0.731-0.393 1.392-0.565 1.983-0.165 0.589-0.375 1.115-0.629 1.58-0.254 0.465-0.581 0.868-0.981 1.209-0.4 0.341-0.928 0.634-1.585 0.879v0c-1.013 0.377-2.046 0.559-3.098 0.544-1.052-0.014-2.084-0.185-3.097-0.513-1.019-0.326-2.004-0.792-2.956-1.399-0.955-0.613-1.841-1.33-2.659-2.151-0.821-0.827-1.56-1.741-2.217-2.742-0.654-1.01-1.189-2.075-1.606-3.194v0c-0.151-0.407-0.311-0.97-0.479-1.69-0.172-0.712-0.342-1.464-0.509-2.257-0.169-0.799-0.317-1.588-0.443-2.367-0.132-0.777-0.238-1.432-0.316-1.965zM28.532 183.319v0c-1.506 0.297-3.016 0.639-4.532 1.025-1.519 0.395-2.989 0.789-4.409 1.182-1.418 0.4-2.761 0.789-4.029 1.169-1.271 0.373-2.406 0.7-3.406 0.979v0c0.179 0.482 0.398 0.991 0.654 1.53 0.264 0.536 0.565 1.057 0.904 1.565 0.336 0.501 0.708 0.975 1.116 1.421 0.406 0.44 0.837 0.803 1.292 1.089 0.459 0.278 0.949 0.455 1.469 0.532 0.516 0.086 1.049 0.026 1.6-0.179v0c0.338-0.126 0.596-0.34 0.776-0.641 0.188-0.298 0.314-0.64 0.376-1.027 0.069-0.389 0.094-0.8 0.075-1.234-0.011-0.43-0.047-0.844-0.11-1.241-0.056-0.399-0.122-0.759-0.199-1.08-0.07-0.323-0.122-0.567-0.155-0.733v0c-0.036-0.172-0.016-0.3 0.059-0.385 0.075-0.085 0.188-0.155 0.338-0.211v0c0.156-0.058 0.424-0.047 0.803 0.032 0.385 0.077 0.912 0.184 1.582 0.319v0l1.489 0.3c0.24 0.281 0.522 0.578 0.845 0.893 0.321 0.308 0.658 0.581 1.011 0.82 0.352 0.239 0.72 0.412 1.101 0.519 0.373 0.103 0.732 0.091 1.076-0.037v0c0.988-0.368 1.663-0.861 2.023-1.48 0.367-0.621 0.4-1.335 0.1-2.141v0c-0.34-0.913-0.956-1.909-1.849-2.986zM44.044 212.247l-5.695 2.145c-0.119-0.24-0.253-0.511-0.401-0.812-0.149-0.301-0.322-0.609-0.521-0.926v0c-0.297-0.475-0.644-0.935-1.04-1.38-0.387-0.443-0.835-0.8-1.343-1.073-0.503-0.276-1.059-0.436-1.67-0.479-0.606-0.038-1.269 0.105-1.987 0.428v0c-0.849 0.429-1.548 0.779-2.094 1.05-0.552 0.275-0.998 0.506-1.337 0.694-0.348 0.186-0.626 0.333-0.835 0.44-0.214 0.11-0.413 0.215-0.595 0.313v0c-0.04 0.025-0.164 0.091-0.373 0.197-0.209 0.107-0.454 0.225-0.735 0.354-0.278 0.134-0.579 0.283-0.902 0.446-0.318 0.159-0.62 0.305-0.907 0.437-0.278 0.134-0.518 0.253-0.721 0.357-0.209 0.107-0.336 0.174-0.381 0.203v0c-0.085 0.053-0.154 0.1-0.207 0.141-0.059 0.045-0.116 0.085-0.173 0.12v0c-0.085 0.053-0.185 0.057-0.3 0.01-0.106-0.044-0.287-0.182-0.544-0.415v0l-4.246-3.355c-0.12-0.091-0.272-0.215-0.458-0.374-0.192-0.156-0.344-0.324-0.458-0.505v0c-0.096-0.153-0.139-0.311-0.13-0.473 0.003-0.159 0.098-0.297 0.284-0.414v0l17.036-8.705c0.378-0.189 0.649-0.303 0.813-0.343 0.168-0.034 0.334 0.031 0.499 0.195v0c0.817 0.866 1.656 1.767 2.516 2.701 0.862 0.925 1.758 1.785 2.688 2.581v0c0.053 0.085 0.074 0.143 0.062 0.174-0.018 0.035-0.055 0.07-0.112 0.105v0c-0.023 0.014-0.056 0.031-0.098 0.05-0.049 0.023-0.158 0.068-0.329 0.135-0.167 0.073-0.422 0.181-0.765 0.325-0.337 0.14-0.81 0.341-1.418 0.603v0c0.702 0.254 1.403 0.583 2.105 0.986 0.707 0.4 1.365 0.831 1.976 1.291 0.62 0.462 1.174 0.934 1.664 1.415 0.49 0.481 0.867 0.934 1.132 1.358zM59.233 228.487l-14.675 10.488c-0.039 0.026-0.076 0.055-0.111 0.086-0.035 0.031-0.067 0.06-0.097 0.086v0c-0.239 0.214-0.402 0.427-0.489 0.64-0.092 0.217-0.146 0.417-0.16 0.601-0.019 0.179-0.028 0.334-0.026 0.466 0.012 0.133-0.007 0.222-0.057 0.267v0c-0.134 0.12-0.388 0.087-0.76-0.099v0l-5.102-2.378c-0.019-0.001-0.053-0.029-0.101-0.084v0c-0.071-0.08-0.073-0.217-0.006-0.411 0.063-0.2 0.165-0.426 0.307-0.678 0.146-0.257 0.307-0.522 0.483-0.796 0.18-0.269 0.347-0.517 0.501-0.745v0c-1.235 0.022-2.328-0.168-3.279-0.57-0.951-0.411-1.734-0.96-2.348-1.646v0c-0.717-0.8-1.242-1.741-1.575-2.823-0.333-1.082-0.436-2.212-0.31-3.391 0.126-1.179 0.491-2.362 1.095-3.548 0.604-1.186 1.485-2.298 2.643-3.336v0c1.367-1.225 2.79-2.141 4.27-2.75 1.48-0.618 2.93-0.95 4.35-0.995 1.421-0.054 2.758 0.173 4.011 0.681 1.248 0.503 2.327 1.262 3.235 2.276v0c0.641 0.716 1.105 1.523 1.391 2.423 0.281 0.904 0.449 1.847 0.504 2.828v0c0.337-0.204 0.595-0.376 0.773-0.518 0.183-0.146 0.337-0.244 0.463-0.293 0.126-0.05 0.248-0.043 0.367 0.02 0.119 0.063 0.287 0.195 0.503 0.396v0c0.713 0.606 1.415 1.214 2.104 1.824 0.694 0.615 1.393 1.274 2.096 1.979zM41.346 233.049l4.783-3.197c0.626-0.391 1.196-0.785 1.71-1.182 0.513-0.397 0.978-0.769 1.393-1.114v0c-0.019-0.252-0.047-0.522-0.083-0.813-0.032-0.285-0.086-0.581-0.163-0.888-0.073-0.302-0.175-0.596-0.307-0.882-0.136-0.282-0.315-0.547-0.537-0.795v0c-0.463-0.517-1.017-0.8-1.662-0.85-0.645-0.05-1.309 0.035-1.992 0.253-0.679 0.223-1.331 0.534-1.958 0.934-0.622 0.396-1.144 0.783-1.566 1.162v0c-1.511 1.354-2.441 2.541-2.791 3.561-0.345 1.026-0.201 1.891 0.432 2.597v0c0.258 0.288 0.628 0.535 1.108 0.742 0.475 0.21 1.02 0.368 1.633 0.472zM48.319 247.613l18.405-21.555c0.043-0.059 0.082-0.118 0.116-0.175 0.034-0.058 0.069-0.111 0.104-0.16v0c0.071-0.097 0.165-0.153 0.282-0.166 0.127-0.015 0.353 0.042 0.679 0.172v0l5.13 2.138c0.134 0.065 0.319 0.129 0.553 0.193 0.24 0.067 0.446 0.164 0.619 0.289v0c0.367 0.267 0.43 0.565 0.191 0.894v0c-0.016 0.022-0.187 0.223-0.514 0.604-0.327 0.381-0.733 0.853-1.217 1.417-0.494 0.565-1.03 1.177-1.61 1.837-0.578 0.669-1.133 1.301-1.665 1.896-0.527 0.599-0.994 1.121-1.402 1.567-0.398 0.445-0.666 0.728-0.804 0.851v0c0.682 0.084 1.374 0.199 2.075 0.347 0.705 0.142 1.388 0.321 2.048 0.537 0.664 0.211 1.298 0.462 1.903 0.754 0.605 0.292 1.155 0.618 1.651 0.98v0c0.631 0.46 1.157 0.979 1.578 1.557 0.417 0.584 0.677 1.236 0.781 1.956 0.108 0.714 0.03 1.495-0.234 2.343-0.263 0.849-0.754 1.767-1.472 2.754v0c-0.181 0.248-0.373 0.5-0.576 0.757-0.198 0.26-0.415 0.519-0.652 0.776v0l-5.303 5.872c-0.363 0.396-0.722 0.828-1.079 1.295-0.353 0.462-0.709 0.94-1.07 1.437v0c-0.063 0.086-0.111 0.158-0.146 0.216-0.038 0.063-0.072 0.116-0.103 0.16v0c-0.067 0.092-0.16 0.135-0.281 0.13-0.111-0.006-0.333-0.065-0.665-0.175v0l-4.578-1.723c-0.137-0.05-0.323-0.112-0.559-0.185-0.234-0.063-0.441-0.16-0.619-0.289v0c-0.178-0.13-0.285-0.266-0.322-0.408-0.033-0.148 0.033-0.335 0.198-0.561v0c0.636-0.726 1.153-1.311 1.551-1.756 0.394-0.439 0.706-0.794 0.936-1.065 0.235-0.266 0.419-0.467 0.55-0.602 0.128-0.13 0.242-0.253 0.344-0.37 0.097-0.111 0.212-0.234 0.343-0.369 0.122-0.134 0.303-0.337 0.542-0.608 0.239-0.272 0.556-0.627 0.95-1.067 0.393-0.449 0.91-1.034 1.551-1.756v0c0.34-0.388 0.684-0.769 1.031-1.144 0.347-0.375 0.644-0.732 0.891-1.071v0c0.318-0.437 0.583-0.851 0.794-1.243 0.211-0.391 0.349-0.757 0.415-1.097 0.066-0.34 0.049-0.657-0.05-0.953-0.104-0.299-0.316-0.564-0.634-0.795v0c-0.237-0.173-0.598-0.357-1.083-0.554-0.485-0.196-1.018-0.325-1.601-0.385-0.587-0.056-1.181-0.005-1.782 0.151-0.596 0.161-1.121 0.508-1.577 1.043v0c-0.662 0.74-1.204 1.348-1.626 1.825-0.418 0.472-0.76 0.862-1.027 1.172-0.276 0.311-0.493 0.558-0.65 0.74-0.162 0.188-0.307 0.359-0.435 0.513v0c-0.05 0.046-0.159 0.161-0.326 0.345-0.165 0.193-0.366 0.418-0.603 0.675-0.237 0.257-0.485 0.53-0.745 0.82-0.259 0.299-0.504 0.578-0.735 0.839-0.231 0.261-0.428 0.485-0.589 0.673-0.165 0.193-0.266 0.314-0.301 0.363v0c-0.063 0.086-0.111 0.158-0.145 0.216-0.038 0.063-0.074 0.119-0.11 0.168v0c-0.063 0.086-0.152 0.129-0.266 0.128-0.124 0-0.347-0.062-0.668-0.189v0l-5.085-1.536c-0.145-0.039-0.333-0.098-0.565-0.176-0.231-0.069-0.435-0.168-0.613-0.298v0c-0.156-0.114-0.255-0.251-0.295-0.412-0.036-0.166 0.021-0.352 0.171-0.557zM77.153 256.802v0c0.925-1.501 1.842-2.983 2.749-4.448 0.905-1.474 1.817-2.992 2.736-4.555v0c0.21-0.365 0.374-0.608 0.493-0.728 0.125-0.117 0.301-0.149 0.527-0.097v0c1.079 0.286 2.203 0.587 3.372 0.902 1.178 0.312 2.349 0.547 3.514 0.705v0c0.039 0.012 0.094 0.035 0.166 0.071v0c0.126 0.062 0.166 0.138 0.122 0.228v0l-9.836 16.043c-0.222 0.359-0.392 0.599-0.51 0.72-0.113 0.123-0.286 0.157-0.519 0.101v0c-1.123-0.181-2.275-0.336-3.454-0.463-1.189-0.124-2.432-0.272-3.732-0.444v0c-0.042-0.006-0.096-0.025-0.162-0.057v0c-0.126-0.062-0.161-0.15-0.104-0.264v0c0.006-0.012 0.092-0.163 0.257-0.454 0.171-0.288 0.395-0.657 0.669-1.109 0.275-0.452 0.578-0.961 0.909-1.528 0.337-0.563 0.677-1.125 1.02-1.684 0.337-0.563 0.662-1.102 0.976-1.618 0.313-0.515 0.582-0.955 0.807-1.321zM85.228 243.674v0c0.275-0.482 0.486-0.85 0.634-1.105 0.148-0.255 0.26-0.445 0.337-0.57 0.077-0.126 0.124-0.207 0.142-0.243 0.018-0.036 0.034-0.061 0.049-0.076 0.015-0.015 0.037-0.045 0.066-0.09 0.033-0.051 0.096-0.157 0.191-0.319 0.095-0.162 0.232-0.395 0.412-0.701 0.177-0.314 0.428-0.741 0.754-1.28v0c0.213-0.371 0.381-0.616 0.506-0.733 0.119-0.12 0.295-0.152 0.528-0.097v0c1.07 0.289 2.194 0.59 3.371 0.903 1.175 0.318 2.345 0.556 3.51 0.714v0c0.036 0.003 0.09 0.022 0.161 0.057v0c0.001 0.09 0.023 0.157 0.069 0.201v0l0.036 0.062-2.709 4.547c-0.222 0.359-0.396 0.601-0.524 0.723-0.122 0.126-0.29 0.158-0.505 0.097v0c-1.067-0.295-2.154-0.581-3.26-0.858-1.115-0.274-2.282-0.578-3.502-0.911v0c-0.042-0.006-0.096-0.025-0.161-0.057v0c-0.126-0.062-0.161-0.15-0.105-0.264zM119.97 277.765l-4.91 0.091c-0.146 0.004-0.338 0.017-0.578 0.038-0.248 0.026-0.478 0.012-0.692-0.042v0c-0.168-0.043-0.309-0.127-0.421-0.252-0.108-0.117-0.135-0.282-0.08-0.495v0l0.027-0.107c0.321-0.882 0.584-1.6 0.787-2.155 0.208-0.546 0.376-0.989 0.504-1.328 0.121-0.341 0.218-0.599 0.29-0.773 0.072-0.174 0.141-0.336 0.207-0.485 0.065-0.149 0.131-0.311 0.196-0.487 0.067-0.183 0.161-0.441 0.281-0.775 0.126-0.333 0.29-0.773 0.491-1.321 0.197-0.556 0.458-1.281 0.783-2.177v0c0.172-0.486 0.35-0.968 0.534-1.444 0.184-0.477 0.327-0.919 0.431-1.326v0c0.134-0.524 0.226-1.006 0.276-1.448 0.051-0.442 0.044-0.833-0.021-1.173-0.063-0.347-0.196-0.635-0.399-0.866-0.208-0.239-0.502-0.407-0.884-0.504v0c-0.239-0.061-0.559-0.091-0.958-0.09-0.406 0-0.833 0.08-1.281 0.242-0.452 0.153-0.887 0.4-1.305 0.741-0.416 0.335-0.75 0.807-1.002 1.418v0l-0.02 0.078c-0.51 1.378-0.955 2.57-1.335 3.575-0.382 1.011-0.713 1.877-0.993 2.598-0.274 0.722-0.503 1.325-0.689 1.807-0.179 0.485-0.331 0.893-0.457 1.227-0.126 0.333-0.227 0.607-0.302 0.821-0.077 0.221-0.14 0.429-0.19 0.624v0c-0.026 0.103-0.045 0.188-0.055 0.254-0.012 0.073-0.024 0.135-0.037 0.187v0c-0.025 0.097-0.091 0.17-0.2 0.218-0.107 0.042-0.335 0.073-0.686 0.093v0l-4.705 0.143c-0.146 0.004-0.342 0.016-0.588 0.036-0.241 0.028-0.469 0.015-0.682-0.039v0c-0.175-0.045-0.315-0.129-0.421-0.252-0.108-0.117-0.135-0.282-0.081-0.496v0l0.028-0.107c0.315-0.884 0.574-1.603 0.777-2.157 0.195-0.549 0.36-0.993 0.494-1.33 0.134-0.338 0.237-0.594 0.31-0.769 0.072-0.174 0.138-0.337 0.196-0.487 0.053-0.152 0.115-0.315 0.187-0.489 0.074-0.181 0.17-0.439 0.29-0.773 0.12-0.334 0.277-0.776 0.473-1.326 0.203-0.554 0.464-1.28 0.782-2.177v0c0.179-0.485 0.36-0.965 0.544-1.442 0.177-0.478 0.318-0.921 0.421-1.328v0c0.134-0.524 0.232-1.005 0.296-1.443 0.057-0.44 0.06-0.828 0.008-1.166-0.05-0.343-0.167-0.628-0.351-0.854-0.175-0.231-0.438-0.391-0.787-0.479v0c-0.252-0.064-0.607-0.089-1.065-0.076-0.458 0.014-0.94 0.108-1.446 0.283-0.499 0.176-0.973 0.454-1.422 0.835-0.45 0.388-0.784 0.916-1.003 1.583v0c-0.338 0.892-0.611 1.628-0.821 2.208-0.215 0.572-0.39 1.044-0.526 1.416-0.134 0.365-0.238 0.662-0.31 0.892-0.077 0.221-0.148 0.431-0.212 0.627v0c-0.026 0.048-0.081 0.183-0.165 0.403-0.085 0.226-0.184 0.494-0.297 0.802-0.107 0.31-0.222 0.642-0.347 0.996-0.126 0.36-0.243 0.696-0.35 1.006-0.107 0.31-0.199 0.579-0.278 0.807-0.071 0.223-0.113 0.36-0.126 0.412v0l-0.086 0.34c-0.031 0.123-0.064 0.225-0.099 0.305-0.036 0.087-0.095 0.158-0.178 0.213-0.084 0.061-0.192 0.106-0.324 0.134-0.133 0.035-0.315 0.061-0.546 0.078v0l-5.322 0.492c-0.149 0.017-0.346 0.032-0.59 0.046-0.24 0.022-0.466 0.005-0.68-0.05v0c-0.175-0.045-0.315-0.129-0.421-0.252-0.108-0.117-0.135-0.282-0.08-0.495v0l6.526-18.584c0.136-0.399 0.253-0.669 0.351-0.809 0.098-0.14 0.263-0.208 0.497-0.204v0c1.188 0.069 2.403 0.138 3.645 0.206 1.235 0.074 2.464 0.074 3.688 0.001v0c0.097 0.025 0.151 0.056 0.162 0.093 0.013 0.031 0.011 0.079-0.005 0.143v0l-0.938 2.664c0.52-0.122 1.103-0.249 1.75-0.38 0.64-0.133 1.304-0.239 1.992-0.319 0.687-0.073 1.376-0.104 2.069-0.092 0.693 0.011 1.349 0.096 1.971 0.255v0c0.86 0.219 1.603 0.615 2.228 1.188 0.624 0.579 1.056 1.382 1.297 2.407v0c0.655-0.219 1.336-0.403 2.042-0.553 0.706-0.15 1.414-0.252 2.123-0.306 0.711-0.06 1.412-0.067 2.103-0.022 0.686 0.037 1.34 0.135 1.96 0.294v0c0.782 0.2 1.494 0.502 2.135 0.906 0.641 0.404 1.152 0.924 1.534 1.558 0.387 0.643 0.625 1.409 0.715 2.301 0.09 0.891-0.015 1.921-0.313 3.091v0c-0.076 0.297-0.161 0.603-0.254 0.917-0.087 0.315-0.193 0.636-0.318 0.962v0l-2.897 7.753c-0.192 0.509-0.35 0.982-0.475 1.418-0.125 0.436-0.262 0.946-0.41 1.528v0c-0.026 0.103-0.045 0.188-0.055 0.254-0.012 0.073-0.024 0.135-0.037 0.187v0c-0.028 0.11-0.099 0.185-0.213 0.225-0.105 0.035-0.333 0.063-0.682 0.084zM151.315 265.629l0.307 10.689c0.001 0.121-0.006 0.236-0.019 0.345-0.021 0.11-0.097 0.206-0.228 0.289v0c-0.05 0.033-0.291 0.155-0.723 0.368-0.432 0.212-0.934 0.457-1.506 0.732-0.565 0.282-1.126 0.563-1.684 0.845-0.551 0.28-0.973 0.495-1.264 0.643v0c-0.145 0.078-0.326 0.166-0.544 0.266-0.21 0.099-0.424 0.161-0.643 0.187v0c-0.179 0.021-0.34-0.007-0.483-0.084-0.143-0.07-0.229-0.228-0.258-0.473v0c-0.066-0.557-0.113-1.072-0.143-1.546-0.022-0.468-0.036-0.96-0.043-1.476-0.007-0.51-0.02-1.08-0.041-1.709-0.013-0.623-0.044-1.362-0.091-2.217v0c-0.074-1.134-0.132-2.222-0.175-3.265-0.05-1.049-0.102-2.138-0.155-3.268v0l-0.118-3.293c-0.03-0.541-0.059-1.092-0.084-1.653-0.025-0.555-0.053-1.129-0.083-1.724v0l-0.067-2.351c-0.003-0.027-0.044-0.035-0.124-0.025v0c-0.099 0.012-0.266 0.055-0.499 0.129-0.241 0.069-0.523 0.156-0.846 0.262-0.324 0.105-0.68 0.215-1.07 0.328-0.396 0.121-0.799 0.236-1.209 0.345v0c-0.106 0.013-0.208 0.004-0.305-0.025-0.105-0.035-0.161-0.085-0.169-0.151v0c-0.005-0.046 0.003-0.084 0.027-0.114v0l2.461-5.775c0.678-0.235 1.412-0.48 2.201-0.734 0.79-0.255 1.644-0.5 2.564-0.737 0.912-0.242 1.884-0.465 2.915-0.668 1.038-0.203 2.143-0.375 3.316-0.513v0c1.328-0.137 2.632-0.16 3.913-0.07 1.28 0.084 2.44 0.346 3.48 0.788 1.04 0.441 1.911 1.101 2.613 1.978 0.709 0.877 1.149 2.041 1.321 3.493v0c0.095 0.802 0.043 1.557-0.156 2.266-0.192 0.708-0.468 1.356-0.828 1.943-0.366 0.594-0.777 1.13-1.231 1.607-0.462 0.471-0.907 0.88-1.337 1.227-0.436 0.347-0.819 0.628-1.15 0.842-0.337 0.215-0.566 0.356-0.686 0.424v0c0.003 0.027 0.017 0.058 0.042 0.096 0.017 0.032 0.066 0.1 0.145 0.204 0.079 0.098 0.19 0.24 0.333 0.424 0.143 0.185 0.33 0.435 0.562 0.75v0c0.242 0.287 0.532 0.666 0.871 1.137 0.339 0.477 0.745 1.041 1.218 1.691 0.467 0.65 1.005 1.369 1.616 2.157 0.611 0.795 1.307 1.643 2.085 2.545v0c0.241 0.166 0.504 0.256 0.788 0.27 0.283 0.007 0.548-0.001 0.794-0.023 0.239-0.022 0.443-0.032 0.611-0.032 0.168 0 0.26 0.07 0.277 0.209v0c0.013 0.106-0.076 0.237-0.266 0.394-0.196 0.158-0.426 0.323-0.688 0.495-0.268 0.173-0.538 0.339-0.807 0.499-0.269 0.166-0.476 0.295-0.62 0.385v0c-0.287 0.189-0.588 0.372-0.903 0.551-0.314 0.185-0.654 0.383-1.018 0.594-0.364 0.218-0.764 0.47-1.201 0.757-0.436 0.287-0.927 0.624-1.473 1.011v0c-0.142 0.104-0.278 0.181-0.406 0.229-0.135 0.05-0.259 0.081-0.372 0.095v0c-0.225 0.027-0.427-0.007-0.606-0.1-0.178-0.086-0.336-0.199-0.473-0.337-0.131-0.139-0.242-0.284-0.334-0.434-0.085-0.151-0.16-0.277-0.226-0.376v0zM151.06 255.045l0.205 8.201c0.649-0.077 1.303-0.322 1.959-0.736 0.663-0.414 1.249-0.914 1.758-1.498 0.515-0.592 0.918-1.241 1.211-1.948 0.286-0.706 0.389-1.397 0.309-2.073v0c-0.218-1.842-1.434-2.633-3.648-2.37v0c-0.418 0.049-0.766 0.117-1.044 0.204-0.271 0.093-0.521 0.166-0.75 0.22zM174.228 274.203l-7.46-27.344c-0.025-0.069-0.051-0.134-0.08-0.195-0.029-0.061-0.053-0.119-0.074-0.176v0c-0.04-0.113-0.033-0.222 0.022-0.326 0.059-0.113 0.234-0.268 0.525-0.465v0l4.654-3.037c0.129-0.075 0.286-0.191 0.47-0.349 0.191-0.16 0.387-0.277 0.588-0.349v0c0.427-0.153 0.709-0.038 0.846 0.346v0c0.009 0.025 0.079 0.28 0.21 0.764 0.131 0.485 0.293 1.086 0.486 1.804 0.189 0.726 0.393 1.514 0.613 2.364 0.228 0.854 0.438 1.668 0.63 2.443 0.199 0.772 0.368 1.453 0.507 2.041 0.144 0.579 0.227 0.961 0.25 1.144v0c0.453-0.517 0.938-1.023 1.455-1.52 0.515-0.503 1.047-0.967 1.597-1.391 0.548-0.43 1.112-0.813 1.694-1.148 0.582-0.336 1.161-0.607 1.739-0.814v0c0.735-0.263 1.46-0.406 2.175-0.428 0.717-0.016 1.402 0.136 2.056 0.455 0.651 0.313 1.253 0.817 1.806 1.512 0.554 0.695 1.036 1.617 1.448 2.767v0c0.103 0.289 0.204 0.59 0.302 0.902 0.104 0.31 0.196 0.635 0.274 0.975v0l1.87 7.688c0.123 0.523 0.278 1.063 0.463 1.62 0.183 0.551 0.378 1.116 0.585 1.694v0c0.036 0.101 0.068 0.181 0.097 0.242 0.031 0.067 0.056 0.125 0.074 0.175v0c0.038 0.107 0.021 0.208-0.05 0.306-0.068 0.088-0.241 0.239-0.519 0.451v0l-4.001 2.814c-0.118 0.085-0.274 0.204-0.467 0.359-0.184 0.158-0.38 0.274-0.587 0.348v0c-0.207 0.074-0.38 0.086-0.519 0.037-0.141-0.056-0.258-0.216-0.352-0.48v0c-0.242-0.934-0.435-1.691-0.579-2.27-0.141-0.573-0.259-1.031-0.353-1.372-0.088-0.344-0.151-0.609-0.189-0.794-0.036-0.179-0.073-0.342-0.112-0.492-0.037-0.143-0.074-0.307-0.112-0.491-0.042-0.176-0.108-0.44-0.198-0.791-0.09-0.351-0.206-0.812-0.347-1.385-0.15-0.577-0.343-1.334-0.579-2.27v0c-0.129-0.5-0.251-0.998-0.365-1.496-0.114-0.498-0.242-0.945-0.384-1.341v0c-0.182-0.509-0.376-0.961-0.581-1.355-0.205-0.394-0.429-0.715-0.673-0.96-0.244-0.246-0.516-0.411-0.816-0.495-0.306-0.082-0.644-0.057-1.014 0.076v0c-0.276 0.099-0.632 0.294-1.067 0.584-0.435 0.29-0.841 0.659-1.22 1.107-0.376 0.454-0.669 0.973-0.878 1.558-0.202 0.583-0.211 1.213-0.024 1.891v0c0.239 0.964 0.437 1.754 0.593 2.371 0.155 0.611 0.285 1.114 0.391 1.508 0.102 0.403 0.184 0.721 0.246 0.954 0.064 0.239 0.124 0.455 0.179 0.648v0c0.01 0.067 0.044 0.222 0.102 0.463 0.067 0.245 0.14 0.538 0.219 0.879 0.079 0.34 0.165 0.699 0.258 1.077 0.101 0.382 0.195 0.742 0.28 1.08 0.086 0.338 0.161 0.627 0.225 0.866 0.067 0.245 0.11 0.397 0.13 0.453v0c0.036 0.101 0.068 0.181 0.097 0.241 0.031 0.067 0.057 0.129 0.077 0.186v0c0.036 0.101 0.021 0.198-0.044 0.292-0.07 0.103-0.247 0.251-0.532 0.445v0l-4.131 3.34c-0.114 0.098-0.269 0.22-0.464 0.368-0.187 0.152-0.384 0.265-0.591 0.339v0c-0.182 0.065-0.351 0.069-0.506 0.011-0.158-0.064-0.279-0.215-0.365-0.454zM208.731 232.574l7.861 16.234c0.019 0.043 0.041 0.084 0.066 0.124 0.025 0.04 0.048 0.076 0.07 0.11v0c0.17 0.271 0.353 0.468 0.547 0.589 0.198 0.128 0.387 0.214 0.566 0.26 0.173 0.049 0.325 0.084 0.455 0.104 0.133 0.011 0.217 0.045 0.253 0.101v0c0.096 0.153 0.021 0.397-0.225 0.733v0l-3.205 4.627c-0.004 0.018-0.037 0.047-0.1 0.086v0c-0.09 0.057-0.226 0.036-0.406-0.064-0.186-0.096-0.392-0.235-0.617-0.416-0.228-0.188-0.463-0.391-0.702-0.611-0.235-0.223-0.451-0.43-0.65-0.62v0c-0.187 1.221-0.558 2.266-1.115 3.136-0.566 0.868-1.239 1.547-2.019 2.037v0c-0.91 0.572-1.926 0.93-3.048 1.076-1.122 0.146-2.254 0.057-3.395-0.266-1.141-0.323-2.245-0.883-3.312-1.678-1.067-0.795-2.015-1.851-2.842-3.168v0c-0.977-1.554-1.64-3.111-1.991-4.672-0.36-1.563-0.442-3.048-0.246-4.456 0.186-1.41 0.635-2.689 1.347-3.838 0.707-1.146 1.636-2.081 2.789-2.805v0c0.814-0.511 1.688-0.832 2.623-0.962 0.938-0.125 1.896-0.131 2.872-0.02v0c-0.144-0.367-0.27-0.65-0.38-0.849-0.113-0.205-0.183-0.373-0.211-0.506-0.028-0.132-0.001-0.252 0.082-0.359 0.082-0.107 0.241-0.25 0.475-0.429v0c0.718-0.601 1.436-1.19 2.153-1.766 0.723-0.58 1.491-1.158 2.305-1.732zM210.21 250.974l-2.344-5.254c-0.28-0.683-0.572-1.311-0.877-1.884-0.305-0.573-0.593-1.094-0.864-1.562v0c-0.251-0.023-0.523-0.042-0.815-0.055-0.287-0.017-0.588-0.013-0.903 0.012-0.31 0.021-0.617 0.072-0.92 0.153-0.3 0.086-0.592 0.218-0.875 0.395v0c-0.588 0.369-0.96 0.868-1.118 1.495-0.158 0.627-0.187 1.296-0.087 2.006 0.105 0.706 0.302 1.402 0.591 2.088 0.285 0.68 0.579 1.26 0.881 1.74v0c1.079 1.718 2.093 2.835 3.04 3.35 0.953 0.513 1.83 0.517 2.632 0.013v0c0.328-0.206 0.634-0.528 0.918-0.967 0.288-0.433 0.535-0.943 0.741-1.53zM247.704 221.531l-2.276 4.35c-0.066 0.13-0.147 0.305-0.244 0.526-0.096 0.23-0.219 0.426-0.369 0.587v0c-0.118 0.127-0.259 0.21-0.423 0.248-0.154 0.038-0.312-0.017-0.473-0.167v0l-0.081-0.075c-0.62-0.705-1.124-1.28-1.512-1.725-0.379-0.445-0.687-0.805-0.924-1.08-0.241-0.27-0.421-0.479-0.539-0.625-0.118-0.147-0.227-0.285-0.326-0.414-0.099-0.129-0.21-0.264-0.333-0.406-0.128-0.147-0.31-0.353-0.546-0.618-0.231-0.27-0.539-0.626-0.922-1.066-0.393-0.439-0.904-1.016-1.534-1.731v0c-0.344-0.385-0.681-0.772-1.011-1.161-0.33-0.39-0.649-0.728-0.957-1.015v0c-0.395-0.369-0.775-0.681-1.138-0.937-0.363-0.256-0.709-0.438-1.039-0.544-0.334-0.111-0.652-0.133-0.951-0.066-0.309 0.068-0.598 0.245-0.867 0.533v0c-0.168 0.181-0.348 0.447-0.538 0.798-0.195 0.356-0.329 0.769-0.403 1.24-0.083 0.47-0.075 0.971 0.024 1.5 0.094 0.526 0.348 1.045 0.763 1.56v0l0.059 0.055c0.964 1.109 1.796 2.071 2.495 2.887 0.704 0.82 1.305 1.527 1.803 2.118 0.502 0.587 0.921 1.077 1.256 1.471 0.339 0.389 0.625 0.719 0.856 0.99 0.231 0.27 0.423 0.49 0.576 0.66 0.157 0.174 0.309 0.329 0.455 0.466v0c0.078 0.073 0.144 0.13 0.197 0.17 0.058 0.045 0.107 0.086 0.146 0.122v0c0.073 0.068 0.105 0.162 0.095 0.28-0.015 0.114-0.097 0.329-0.247 0.646v0l-2.133 4.197c-0.066 0.13-0.15 0.307-0.25 0.533-0.091 0.225-0.212 0.418-0.362 0.579v0c-0.123 0.132-0.264 0.215-0.424 0.249-0.154 0.038-0.312-0.017-0.473-0.168v0l-0.081-0.075c-0.624-0.701-1.131-1.273-1.519-1.717-0.388-0.435-0.698-0.792-0.93-1.072-0.232-0.28-0.407-0.493-0.525-0.64-0.118-0.147-0.229-0.282-0.333-0.407-0.108-0.119-0.221-0.252-0.34-0.398-0.123-0.151-0.303-0.36-0.539-0.626-0.236-0.266-0.548-0.616-0.936-1.051-0.389-0.444-0.9-1.021-1.534-1.731v0c-0.339-0.389-0.674-0.779-1.005-1.169-0.335-0.385-0.656-0.721-0.963-1.007v0c-0.395-0.369-0.77-0.686-1.124-0.952-0.359-0.261-0.698-0.45-1.019-0.566-0.325-0.121-0.631-0.155-0.917-0.103-0.287 0.043-0.553 0.196-0.798 0.46v0c-0.177 0.19-0.37 0.49-0.578 0.899-0.208 0.409-0.356 0.877-0.446 1.404-0.086 0.522-0.069 1.072 0.051 1.648 0.124 0.581 0.427 1.128 0.907 1.64v0c0.62 0.724 1.135 1.318 1.543 1.78 0.399 0.463 0.728 0.843 0.989 1.141 0.256 0.293 0.467 0.527 0.634 0.7 0.157 0.174 0.307 0.336 0.449 0.487v0c0.03 0.046 0.121 0.159 0.274 0.338 0.158 0.183 0.345 0.399 0.561 0.646 0.221 0.242 0.457 0.503 0.707 0.783 0.255 0.284 0.494 0.547 0.715 0.789 0.221 0.242 0.413 0.453 0.574 0.631 0.162 0.169 0.262 0.272 0.302 0.309v0l0.256 0.238c0.093 0.086 0.166 0.164 0.221 0.233 0.059 0.073 0.093 0.16 0.101 0.259 0.013 0.103 0.001 0.22-0.038 0.348-0.033 0.133-0.098 0.306-0.194 0.517v0l-2.123 4.905c-0.057 0.139-0.138 0.319-0.243 0.54-0.096 0.221-0.219 0.411-0.369 0.572v0c-0.123 0.132-0.264 0.215-0.423 0.249-0.154 0.038-0.312-0.017-0.474-0.168v0l-13.171-14.645c-0.285-0.311-0.465-0.543-0.541-0.696-0.076-0.153-0.056-0.331 0.059-0.533v0c0.63-1.009 1.274-2.042 1.931-3.099 0.657-1.048 1.247-2.126 1.771-3.236v0c0.068-0.073 0.121-0.106 0.159-0.097 0.033 0.004 0.074 0.028 0.123 0.073v0l1.887 2.101c0.142-0.515 0.311-1.087 0.506-1.717 0.191-0.625 0.416-1.259 0.677-1.901 0.266-0.637 0.57-1.257 0.912-1.859 0.342-0.602 0.732-1.138 1.169-1.607v0c0.605-0.649 1.309-1.111 2.112-1.384 0.807-0.269 1.719-0.263 2.734 0.017v0c0.123-0.68 0.287-1.365 0.495-2.057 0.207-0.692 0.457-1.362 0.751-2.009 0.289-0.652 0.619-1.271 0.99-1.855 0.362-0.584 0.761-1.11 1.198-1.579v0c0.551-0.591 1.157-1.07 1.819-1.438 0.662-0.368 1.364-0.567 2.104-0.598 0.75-0.031 1.537 0.128 2.361 0.476 0.824 0.349 1.678 0.935 2.562 1.759v0c0.225 0.209 0.452 0.43 0.682 0.663 0.235 0.228 0.465 0.475 0.692 0.741v0l5.411 6.262c0.354 0.413 0.693 0.778 1.016 1.098 0.323 0.319 0.704 0.684 1.144 1.093v0c0.078 0.073 0.144 0.13 0.197 0.17 0.058 0.045 0.107 0.086 0.146 0.122v0c0.083 0.077 0.115 0.175 0.095 0.294-0.02 0.109-0.104 0.322-0.254 0.64zM262.559 195.034l-1.02 4.744c-0.03 0.143-0.062 0.333-0.096 0.571-0.032 0.247-0.099 0.468-0.202 0.663v0c-0.081 0.154-0.195 0.271-0.342 0.352-0.139 0.078-0.306 0.066-0.501-0.037v0l-0.098-0.051c-0.577-0.393-1.068-0.722-1.471-0.987-0.401-0.271-0.764-0.518-1.092-0.743-0.321-0.221-0.65-0.435-0.985-0.641-0.327-0.209-0.709-0.459-1.145-0.748-0.436-0.289-0.955-0.629-1.557-1.02-0.592-0.394-1.338-0.883-2.236-1.468v0c-0.548-0.363-1.113-0.723-1.694-1.081-0.578-0.364-1.121-0.679-1.629-0.945v0c-0.343-0.18-0.673-0.319-0.991-0.418-0.314-0.105-0.609-0.146-0.884-0.125-0.281 0.018-0.538 0.113-0.771 0.285-0.23 0.166-0.438 0.426-0.624 0.78v0c-0.136 0.26-0.269 0.65-0.399 1.17-0.13 0.52-0.184 1.075-0.163 1.667 0.03 0.589 0.165 1.172 0.405 1.749 0.239 0.578 0.658 1.05 1.257 1.418v0c0.808 0.514 1.493 0.953 2.056 1.316 0.566 0.372 1.043 0.691 1.432 0.955 0.398 0.262 0.719 0.475 0.964 0.641 0.244 0.166 0.455 0.303 0.632 0.411v0c0.035 0.034 0.15 0.116 0.344 0.249 0.194 0.132 0.427 0.284 0.699 0.457 0.268 0.178 0.551 0.365 0.848 0.558 0.304 0.197 0.589 0.385 0.858 0.563 0.271 0.172 0.506 0.322 0.703 0.448 0.198 0.126 0.317 0.2 0.358 0.222v0c0.095 0.05 0.173 0.087 0.236 0.112 0.068 0.028 0.129 0.056 0.182 0.085v0c0.095 0.05 0.148 0.134 0.16 0.254 0.022 0.117-0.007 0.343-0.085 0.678v0l-0.816 5.326c-0.018 0.149-0.049 0.344-0.092 0.585-0.035 0.238-0.103 0.455-0.206 0.65v0c-0.084 0.16-0.198 0.277-0.342 0.351-0.139 0.078-0.306 0.066-0.501-0.037v0l-16.59-10.673c-0.36-0.234-0.596-0.415-0.711-0.542-0.114-0.128-0.142-0.304-0.083-0.53v0c0.342-1.14 0.692-2.309 1.049-3.508 0.367-1.202 0.656-2.406 0.868-3.614v0c0.047-0.089 0.089-0.134 0.128-0.136 0.039-0.002 0.085 0.011 0.138 0.038v0c0.024 0.012 0.058 0.034 0.102 0.065 0.038 0.028 0.129 0.098 0.273 0.211 0.144 0.113 0.366 0.279 0.667 0.497 0.297 0.224 0.712 0.532 1.244 0.924v0c-0.046-1.019-0.026-1.947 0.059-2.784 0.082-0.831 0.206-1.591 0.372-2.28 0.163-0.683 0.359-1.308 0.588-1.874 0.232-0.557 0.47-1.068 0.715-1.535v0c0.84-1.601 1.936-2.511 3.286-2.73 1.351-0.218 2.998 0.183 4.942 1.203v0c0.272 0.143 0.549 0.296 0.833 0.46 0.283 0.164 0.569 0.344 0.858 0.541v0l6.912 4.622c0.448 0.31 0.869 0.577 1.265 0.799 0.396 0.223 0.859 0.474 1.391 0.753v0c0.095 0.05 0.173 0.087 0.235 0.112 0.068 0.028 0.126 0.055 0.173 0.08v0c0.1 0.053 0.159 0.136 0.175 0.249 0.007 0.117-0.02 0.347-0.081 0.693zM258.643 183.978v0c-1.618-0.699-3.218-1.393-4.798-2.08-1.589-0.683-3.223-1.366-4.902-2.05v0c-0.392-0.155-0.656-0.282-0.791-0.382-0.134-0.106-0.191-0.276-0.173-0.508v0c0.128-1.109 0.263-2.265 0.407-3.467 0.139-1.21 0.203-2.403 0.191-3.579v0c0.006-0.04 0.021-0.098 0.046-0.174v0c0.043-0.133 0.112-0.185 0.208-0.154v0l17.294 7.42c0.388 0.168 0.649 0.301 0.786 0.401 0.138 0.094 0.196 0.26 0.175 0.499v0c-0.018 1.138-0.004 2.299 0.039 3.485 0.048 1.194 0.081 2.446 0.099 3.757v0c0 0.042-0.011 0.098-0.033 0.168v0c-0.043 0.133-0.125 0.18-0.246 0.141v0c-0.013-0.004-0.175-0.067-0.486-0.189-0.309-0.128-0.707-0.296-1.195-0.502-0.487-0.207-1.035-0.433-1.642-0.679-0.606-0.252-1.21-0.508-1.814-0.767-0.606-0.252-1.186-0.496-1.741-0.732-0.555-0.236-1.029-0.439-1.424-0.608zM244.488 177.88v0c-0.517-0.202-0.912-0.358-1.185-0.468-0.273-0.11-0.478-0.193-0.613-0.251-0.136-0.058-0.222-0.093-0.26-0.106-0.038-0.012-0.066-0.025-0.083-0.037-0.017-0.013-0.05-0.03-0.099-0.053-0.055-0.025-0.169-0.072-0.343-0.143-0.174-0.07-0.425-0.173-0.753-0.307-0.337-0.13-0.795-0.317-1.375-0.561v0c-0.398-0.157-0.664-0.289-0.798-0.395-0.136-0.1-0.193-0.27-0.172-0.508v0c0.132-1.101 0.268-2.256 0.407-3.467 0.146-1.208 0.213-2.4 0.2-3.575v0c-0.002-0.036 0.009-0.092 0.033-0.168v0c0.089-0.013 0.152-0.046 0.189-0.097v0l0.057-0.045 4.889 2.025c0.388 0.168 0.652 0.306 0.792 0.414 0.142 0.102 0.199 0.264 0.169 0.486v0c-0.138 1.099-0.265 2.215-0.38 3.35-0.11 1.143-0.243 2.341-0.396 3.596v0c0 0.042-0.011 0.098-0.033 0.168v0c-0.043 0.133-0.125 0.18-0.246 0.142zM6.877 141.127c0-1.877 1.522-3.399 3.399-3.399 1.877 0 3.399 1.522 3.399 3.399 0 1.877-1.522 3.399-3.399 3.399-1.877 0-3.399-1.522-3.399-3.399zM259.139 141.127c0-1.877 1.522-3.399 3.399-3.399 1.877 0 3.399 1.522 3.399 3.399 0 1.877-1.522 3.399-3.399 3.399-1.877 0-3.399-1.522-3.399-3.399z" fill="#000000" data-fill-palette-color="primary"></path></svg></g></svg></g></svg></g><g></g></svg></g></svg><rect width="280" height="280" fill="none" stroke="none" visibility="hidden"></rect></g></svg></g></svg>